<svg xmlns="http://www.w3.org/2000/svg" width="1000" height="1000"><g transform="translate(0,-52)"><path style="fill:#a1ff8f;" d="M 490,188 C 388,188 297,239 236,315 175,390 139,489 139,598 139,651 148,702 164,749 168,761 104,800 104,800 L 161,917 C 228,878 280,843 347,795 308,746 283,676 283,598 283,518 310,446 349,398 389,349 438,324 490,324 542,324 591,349 630,398 670,446 697,518 697,598 697,672 674,739 638,787 708,841 783,885 845,913 L 896,803 C 900,792 813,757 817,745 832,699 840,650 840,598 840,489 805,390 744,315 682,239 592,188 490,188 z M 487,243 C 495,243 501,249 501,257 501,265 495,271 487,271 479,271 473,265 473,257 473,249 479,243 487,243 z M 303,334 C 311,334 317,340 317,348 317,356 311,362 303,362 295,362 289,356 289,348 289,340 295,334 303,334 z M 685,340 C 693,340 699,346 699,354 699,362 693,368 685,368 677,368 671,362 671,354 671,346 677,340 685,340 z M 218,526 C 226,526 232,532 232,540 232,548 226,554 218,554 210,554 204,548 204,540 204,532 210,526 218,526 z M 764,532 C 771,532 778,538 778,546 778,554 771,560 764,560 756,560 749,554 749,546 749,538 756,532 764,532 z M 248,750 C 256,750 263,757 263,764 263,772 256,779 248,779 241,779 234,772 234,764 234,757 241,750 248,750 z M 743,758 C 751,758 757,765 757,772 757,780 751,787 743,787 736,787 729,780 729,772 729,765 736,758 743,758 z" /></g></svg>