<?xml version="1.0" encoding="UTF-8" standalone="no"?>
<!-- Generator: Adobe Illustrator 16.0.0, SVG Export Plug-In . SVG Version: 6.00 Build 0)  -->

<svg
   xmlns:dc="http://purl.org/dc/elements/1.1/"
   xmlns:cc="http://creativecommons.org/ns#"
   xmlns:rdf="http://www.w3.org/1999/02/22-rdf-syntax-ns#"
   xmlns:svg="http://www.w3.org/2000/svg"
   xmlns="http://www.w3.org/2000/svg"
   xmlns:sodipodi="http://sodipodi.sourceforge.net/DTD/sodipodi-0.dtd"
   xmlns:inkscape="http://www.inkscape.org/namespaces/inkscape"
   version="1.1"
   id="svg2"
   sodipodi:docname="Germany.svg"
   inkscape:version="0.48.4 r9939"
   x="0px"
   y="0px"
   width="945px"
   height="768px"
   viewBox="0 0 945 768"
   enable-background="new 0 0 945 768"
   xml:space="preserve"><metadata
   id="metadata3037"><rdf:RDF><cc:Work
       rdf:about=""><dc:format>image/svg+xml</dc:format><dc:type
         rdf:resource="http://purl.org/dc/dcmitype/StillImage" /></cc:Work></rdf:RDF></metadata><defs
   id="defs3035">
		
		
	
		
		
		
		
	
		
		
	
		
		
		
	</defs>
<sodipodi:namedview
   id="namedview68"
   borderopacity="0"
   showgrid="false"
   bordercolor="#666666"
   pagecolor="#ffffff"
   gridtolerance="10"
   guidetolerance="10"
   objecttolerance="10"
   inkscape:cx="569.21424"
   inkscape:cy="666.69561"
   inkscape:zoom="5.6568542"
   inkscape:pageopacity="0"
   inkscape:pageshadow="2"
   inkscape:window-width="1840"
   inkscape:window-height="1181"
   inkscape:window-maximized="1"
   inkscape:window-y="-4"
   inkscape:current-layer="karte"
   inkscape:window-x="-4">
	</sodipodi:namedview>
<g
   id="karte"
   transform="translate(-41.607386,-92.53125)">
	<path
   style="fill:#00338d;fill-opacity:1"
   d="M 395.79489,102.21875 C 390.75377,110.90937 409.35389,109.96427 398.85739,113.5 391.78172,106.84382 391.8223,118.85181 392.32614,123.46875 389.70083,114.69167 393.5958,102.02494 399.04489,93.96875 407.13995,95.274443 395.77344,98.906352 395.79489,102.21875 z M 425.07614,108.625 C 430.74736,110.5844 435.66129,111.69572 441.50393,113.15589 443.54578,119.93564 450.14667,116.76007 456.13864,115.21875 463.65626,106.25831 464.61355,115.57111 472.51084,119.738 477.30002,129.85344 479.36901,112.06776 482.88978,123.39569 487.24723,131.94161 487.95642,148.77268 475.16989,148.8125 476.49823,155.23256 485.79072,146.63867 490.23239,148 498.68962,147.9142 488.41278,166.7718 494.98641,156.88671 500.73025,147.3988 513.3551,157.17948 519.04489,161.6875 525.72702,171.17344 531.48225,154.5815 539.16947,156.77729 543.45286,156.53834 545.05464,172.41088 540.95114,176.21875 535.56286,181.17652 530.84952,184.48384 525.51364,187.21875 522.71831,192.83242 529.83982,193.13939 532.29489,194.75 533.48647,200.75576 541.5586,188.28715 546.74777,191.29415 552.9216,191.14238 551.00408,202.89246 558.08673,197.49272 565.66105,206.03105 563.21886,193.50776 568.48239,189.875 575.73853,184.54 570.83173,179.48769 566.73239,188.5625 567.15869,182.63087 575.55607,175.27965 582.07614,178.3125 589.57256,175.48943 600.10732,178.91314 602.35739,169.84375 611.18728,165.60084 612.81552,156.69762 617.01534,148.3672 622.19543,147.97816 635.28288,146.53609 642.88864,144.78125 646.65938,146.42263 632.46014,152.59752 631.48239,148.40625 623.98814,150.35905 612.37277,154.36248 612.364,164.48272 618.30631,171.18324 614.8739,167.05323 616.92203,162.29036 622.54492,151.8373 633.58356,158.87242 640.29489,155.71875 642.75525,145.03912 653.92003,153.81946 652.01443,161.6563 654.14158,167.03949 664.35357,164.29924 665.66989,172.6875 671.11856,173.4741 667.78732,174.81176 671.60739,178.53125 677.24914,185.36176 671.36365,172.40013 680.99408,174.78555 692.98739,169.55086 689.10374,187.04881 696.01935,191.48238 703.86419,195.72781 686.68299,200.03516 695.79364,203.70836 701.74765,208.15519 711.32296,214.54249 717.51364,208.8125 722.76906,216.94101 720.03299,228.17705 725.29489,236.40625 726.13711,243.79687 731.21505,250.58606 730.51364,256.25 723.72857,261.24221 731.70881,269.09524 725.92815,274.85998 721.54807,280.16431 712.07663,282.47902 717.26364,290.90625 711.24521,298.44424 727.79698,296.88031 730.10739,303.15625 733.52474,311.85988 747.9346,311.65514 746.15319,322.67069 744.75832,328.989 738.12289,332.84812 742.97103,340.0841 741.53358,348.04567 753.97229,343.28908 752.25462,350.71698 750.60319,356.24025 750.36344,360.71362 755.73239,363.6875 753.1609,371.03553 755.31207,380.2645 747.48239,385.46875 749.33101,391.31847 753.92609,396.64785 758.07464,401.42949 757.64863,407.6928 753.78646,415.19004 763.52188,415.20371 774.5369,415.85226 771.02129,427.65053 776.26364,434.09375 776.64632,443.28757 773.64219,453.36131 772.00357,462.27673 769.52943,467.6825 767.16722,476.12302 763.35114,478.91598 749.98494,479.76585 758.38675,464.542 748.13809,460.09775 756.38947,464.20578 736.45634,460.84804 734.82614,459.28125 728.05658,467.14196 739.9857,467.4878 741.47966,471.27141 734.78245,476.122 725.31282,480.89752 716.94502,484.13777 711.61352,484.24165 712.93576,494.18014 704.95933,490.24864 695.36031,489.26635 692.3041,497.06197 688.02949,502.73061 677.42613,495.23425 676.11712,516.56723 667.37859,512.65518 659.00788,510.69309 666.05779,522.11147 658.41989,523 651.34136,513.75651 645.34273,523.95227 637.01364,523.8125 629.00777,526.81077 620.8958,537.66953 622.79489,546.09375 617.07067,545.12456 620.20927,535.84583 613.63864,532.4375 607.48021,530.60164 608.41347,540.48122 612.41989,541.84375 618.783,544.48306 611.44775,552.25174 617.89534,553.45019 620.47793,560.73763 634.64933,560.07385 635.8305,569.82666 636.2864,577.41062 624.91014,582.78877 630.63864,588.9375 639.58002,589.08938 634.99982,602.70423 642.07614,605.09375 644.39642,606.74184 643.60863,615.73988 650.76364,617.0625 651.8655,625.47766 658.83888,620.75661 662.60739,621.4375 668.29595,626.70521 674.68962,633.78724 677.54489,640.15625 683.5817,641.25895 691.45843,643.98808 692.07278,652.09231 696.10451,663.20598 701.03116,648.02407 706.10739,658.25 709.37362,663.45058 719.51537,664.43464 718.26364,674 717.21329,679.99002 721.84811,695.70314 711.23198,695.33461 705.97173,689.47507 694.62014,688.82762 696.98239,697.09375 693.79262,701.57698 698.15518,707.13179 693.5902,711.10227 687.50459,721.6683 672.745,715.73942 667.16989,726.53125 660.07966,725.33718 660.12837,733.77738 654.70114,736.34375 657.3086,741.29472 661.76933,747.27902 665.73239,750.1875 673.55718,756.70861 671.03566,764.21713 665.79489,771.3125 668.40548,776.41199 672.51001,769.27678 675.12453,772.80172 683.2529,778.35356 671.53799,784.33714 675.38864,789.8125 676.01028,801.45606 662.19491,790.10844 658.76364,786.3125 662.48884,779.58951 654.25341,773.41168 647.41989,776.96875 642.52232,786.86747 636.44036,775.39488 630.32614,775.40625 626.00059,774.0039 619.63509,768.44121 621.98239,781.59375 621.73932,788.80364 607.49994,780.04263 602.62855,784.41318 598.53118,791.09914 585.11253,780.90406 583.54489,790.6875 583.48484,798.49381 572.6225,789.96182 571.01364,797.40625 575.61434,794.01457 556.86962,812.27858 562.60739,801.71875 558.00657,800.74818 545.69953,809.66497 545.60739,803.1875 540.4194,798.80926 539.51962,794.82325 537.54489,792.5 531.15841,797.86842 525.44251,785.2073 520.38864,791.375 514.29357,798.50928 512.8612,782.8626 510.82135,790.19856 512.30696,798.31636 515.53248,804.59158 506.72041,811.30577 503.04169,817.85616 488.72067,820.14134 497.45114,809.5 501.52125,800.45829 485.78984,816.07714 489.16989,803.96875 493.06684,797.61411 479.06965,799.16503 481.76364,791.71875 476.26277,795.99075 471.5052,791.46478 471.26364,787.09375 466.65891,792.97981 459.73227,790.65791 454.35739,786.375 453.52849,778.41098 444.66657,782.22303 440.23239,779.375 435.34604,775.14694 432.59629,769.76943 425.79489,767.1875 419.28175,765.46936 429.60094,773.04743 432.19369,774.05082 439.3364,786.10652 426.97491,777.45697 421.13864,778.8125 415.07789,784.93252 410.75976,777.36588 405.81847,778.15688 403.81916,771.27824 400.58954,770.05853 397.36399,769.07256 395.20609,763.84646 381.35693,773.97232 385.00289,780.01969 387.95259,786.06239 399.03054,773.22308 396.94531,783.34578 396.12864,790.1078 387.98405,777.22158 388.98239,786.9375 387.807,789.64905 376.64086,790.45634 376.98239,784.96875 368.73085,778.846 365.30571,792.64437 357.42541,789.26673 350.70599,782.80891 346.1224,788.70403 339.04489,790.78125 333.55868,787.77389 341.31764,784.82978 330.95533,781.57142 324.17693,777.21097 332.44538,773.17568 329.41989,768.28125 331.95141,762.26619 330.70976,755.47956 335.57614,750.25 333.60313,745.3683 330.68624,739.96748 334.11792,734.37521 339.55122,730.02893 338.38854,721.01197 343.88864,717.84375 343.0831,711.76963 345.10612,705.38907 348.63864,699.9375 345.27355,689.44024 357.69814,686.29743 359.45114,677.71875 370.45661,677.06058 367.36356,662.06557 375.98239,658.71875 382.57846,655.99369 369.48452,659.86422 366.13864,655.65625 359.02992,647.1025 347.23101,652.78077 338.57739,648.85414 330.81489,647.24974 332.29963,632.19459 323.73239,638.78125 321.82235,645.52813 314.43149,640.54321 310.13864,641.75 304.34618,641.94869 305.13089,641.70313 300.23239,633.625 289.40354,626.58457 295.45478,643.8871 284.63864,636.125 286.31433,629.9582 279.44829,625.52134 275.98239,619.71875 275.76764,613.6478 274.21915,607.21123 266.07614,608.46875 263.06324,605.97034 263.91002,598.15668 266.66989,595.78125 270.91364,591.79344 279.76252,577.37035 271.20114,576.40625 258.8826,572.14346 247.19067,555.65272 255.20231,542.84849 255.33048,537.0654 262.58145,528.76179 268.01364,529.5625 271.27346,527.50654 268.94618,518.30743 267.20114,513.25 263.17141,512.56886 254.58611,510.86629 259.95787,504.89329 262.09975,500.07821 257.46261,494.89525 252.70407,489.60461 243.09676,483.65105 255.06717,479.36451 253.88864,475.1875 253.50877,471.45465 251.81876,464.29376 245.13864,466.84375 235.90234,456.31072 255.21952,458.42947 258.37619,451.14183 266.35211,443.65715 251.03254,454.87376 255.64815,444.13867 261.44725,436.4638 266.38932,429.90401 265.10601,419.94177 261.82223,412.31443 257.78895,406.63562 254.5283,400.12949 247.65067,389.22812 257.56686,385.26215 266.54441,384.69294 275.78941,386.78992 275.25926,389.06919 279.69786,386.10486 286.56854,384.64802 293.41003,382.66423 298.76364,382.40625 310.34624,375.93771 288.62302,369.90178 300.5261,364.85016 305.02083,361.25424 317.30975,355.4203 315.10739,350.09375 317.98768,345.64671 318.25565,331.86566 312.29489,333.03125 308.26898,336.42297 292.57699,331.64425 298.29489,323.65625 295.25427,312.44078 307.31483,313.07067 314.82614,315.78125 321.46752,317.45752 316.98539,302.57563 319.88287,298.32873 325.27553,290.5114 330.81575,280.11824 326.57614,270.9375 330.72712,266.29403 326.23693,253.25389 334.04489,253.25 329.5891,249.85886 315.20784,255.47049 318.35535,246.85864 313.78398,233.00149 329.76949,237.3508 323.48239,230.40625 325.67831,222.30954 337.89815,216.9525 346.10739,220.84375 355.46992,220.89136 365.51802,215.49102 375.35739,218.875 373.41297,225.70025 382.73708,226.80373 382.85739,234.625 381.77907,239.76828 372.80332,236.00649 377.88864,242.59375 382.15706,240.78846 384.80431,252.41271 389.16989,245.65625 396.1709,235.96437 384.18409,238.34615 386.82614,231.1875 391.26252,222.33946 395.37489,235.81567 402.01364,234.125 407.57652,239.53311 400.237,227.26595 400.32614,224.15625 401.33187,216.64524 402.84428,205.44317 410.73239,202.59375 413.63217,205.85898 420.07745,210.88511 425.70114,208.09375 431.15754,210.26546 431.33554,201.04039 427.79489,202.40625 424.15714,199.4833 414.44286,186.6237 424.88864,188.90625 431.78792,192.49185 426.77621,175.98516 422.01364,181.21875 415.02306,177.55023 423.77538,170.50315 420.32614,165.6875 413.98459,162.87261 413.92504,170.162 409.41973,166.39664 403.32156,161.52887 409.11412,159.93252 412.98239,159.21875 413.19829,150.63427 426.82952,158.48261 429.98239,149.625 431.02785,142.02372 422.65797,134.16687 417.10739,129.5625 417.14487,121.18599 406.04131,115.723 410.91989,107.75 415.57643,109.03216 420.16459,108.13849 425.07614,108.625 z M 403.20114,129.15625 C 394.60678,129.44471 397.8264,120.39575 404.57614,122.125 410.61162,121.54804 408.65482,131.64258 403.20114,129.15625 z M 672.23239,124.90625 C 670.66376,133.83268 680.52957,131.46251 685.63864,129.96875 695.55053,134.3907 677.54622,139.22416 684.63864,145.6875 689.28687,146.74563 696.34487,149.88888 692.25812,156.09559 690.10205,153.87191 683.2129,150.28076 678.91989,153.5 674.75288,157.46921 669.72016,162.00767 675.73239,161.21875 675.58311,166.91805 658.4743,160.94192 658.98239,154.6875 663.48365,145.97455 664.5646,150.2293 661.57614,143.25 674.64562,141.84854 650.86239,134.49731 666.31025,133.63738 669.27564,131.36198 678.71225,146.99217 679.58557,136.25293 681.18843,128.80048 663.11977,135.61593 665.79489,129.9375 668.89264,120.48822 663.41134,130.2945 661.35739,133.28125 659.51824,128.96604 667.33114,119.20426 674.48239,121.15625 676.73664,123.42934 673.07665,123.84575 672.23239,124.90625 z M 397.60739,133.875 C 394.44925,139.16892 388.61122,127.10284 395.41989,126.0625 393.15962,127.5645 395.26072,132.82 397.60739,133.875 z M 411.91989,130.875 C 408.54961,137.27732 399.83612,133.07461 411.91989,130.875 z M 653.52864,134.79994 C 651.36572,148.73656 651.10912,138.89304 653.26364,131.03125 658.47237,132.1345 653.17271,131.79762 653.52864,134.79994 z M 403.82614,138.5625 C 411.90321,138.87167 402.82753,143.01831 403.82614,138.5625 z M 411.10739,146.78125 C 405.07874,147.0877 408.2714,139.89867 413.29489,141.03125 415.23191,141.24818 412.84088,146.83247 411.10739,146.78125 z M 555.31577,149.17275 C 548.76417,152.99703 542.67888,141.03487 542.45114,146.78125 538.37708,146.07766 540.75083,138.80431 543.60739,136.9375 548.29864,135.0204 560.91374,147.71492 555.31577,149.17275 z M 661.95114,139.53125 C 670.82741,141.63881 650.41582,148.46418 661.95114,139.53125 z M 426.88864,144.9375 C 428.05279,153.70424 412.63296,148.51266 422.57614,144.03125 423.88449,144.82903 425.84484,143.75619 426.88864,144.9375 z M 651.51364,145.75 C 646.31442,149.24991 645.26088,146.38119 651.04489,145.25 z M 711.35371,178.32322 C 717.38194,182.09937 729.4962,187.98692 726.10371,196.26072 720.17211,194.18435 708.578,204.75152 706.66621,197.32322 715.14485,196.89368 709.2266,192.21127 709.63496,188.19822 714.76969,189.53456 720.56391,191.1074 715.33567,182.06872 710.90176,178.62064 711.11226,182.9954 706.75996,183.10447 705.56041,178.65634 697.49982,172.20634 702.69746,169.41697 705.49332,172.18098 706.4167,177.37753 711.35371,178.32322 z M 369.10739,173.5625 C 375.62857,175.50128 364.40729,177.40998 369.10739,173.5625 z M 412.63864,185.6875 C 414.73073,190.6053 409.1923,187.14346 412.63864,185.6875 z M 561.63864,188.09375 C 559.22004,198.13815 550.11581,186.50136 560.60739,186.0625 561.97149,185.83456 562.04174,187.19581 561.63864,188.09375 z M 368.26364,210.5625 368.85739,210.65625 C 379.01916,213.15045 360.34413,211.50498 367.57614,210.53125 z M 362.26364,211.71875 C 367.38251,213.75083 348.91105,214.79523 358.35739,211.4375 359.66083,211.45254 360.97466,211.51389 362.26364,211.71875 z M 374.41989,211.96875 C 377.40969,216.66379 372.14585,215.34219 374.41989,211.96875 z M 352.68348,214.39894 C 346.82233,215.82166 339.85402,215.4031 349.20114,213.25 350.2586,212.20203 355.88094,214.79525 352.68348,214.39894 z M 340.20114,215.09375 C 348.99494,216.69724 333.84091,217.35368 340.20114,215.09375 z M 337.70114,216.125 C 338.5111,213.31784 320.06186,218.62799 329.54489,215.84375 332.21336,216.06809 335.12798,215.40918 337.70114,216.125 z M 319.62406,219.75962 C 309.82347,221.52721 310.57579,219.36317 320.10739,219.09375 326.15689,219.18369 323.66951,220.18981 319.62406,219.75962 z M 303.07614,229.09375 C 300.70319,232.36499 296.16364,222.26181 304.51364,224.5 312.9387,225.00317 300.97469,231.86159 303.07614,229.09375 z M 271.32614,522.8125 C 268.23991,527.53849 273.09815,532.18169 271.32614,522.8125 z M 402.51364,775.34375 C 406.94135,780.97503 393.92816,775.7631 402.51364,775.34375 z M 464.45114,785.75 C 464.87821,786.95479 464.90783,786.29132 464.45114,785.75 z"
   id="Germany"
   inkscape:connector-curvature="0"
   sodipodi:nodetypes="ccccccccccccccccccccccccccccccccccccccccccccccccccccccccccccccccccccccccccccccccccccccccccccccccccccccccccccccccccccccccccccccccccccccccccccccccccccccccccccccccccccccccccccccccccccccccccccccccccccccccccccccccccccccccccccccccccccccccccccccccccccccccccccccccccccc" /><path
   style="font-size:medium;font-style:normal;font-variant:normal;font-weight:normal;font-stretch:normal;text-indent:0;text-align:start;text-decoration:none;line-height:normal;letter-spacing:normal;word-spacing:normal;text-transform:none;direction:ltr;block-progression:tb;writing-mode:lr-tb;text-anchor:start;fill:#4ecd00;fill-opacity:1;stroke:none;stroke-width:51.62862015;marker:none;visibility:visible;display:inline;overflow:visible;enable-background:accumulate;font-family:Bitstream Vera Sans;-inkscape-font-specification:Bitstream Vera Sans"
   d="M 679.60393,310.80097 C 679.08697,311.78549 679.80866,311.31911 680.12647,311.27474 680.04491,311.84353 679.85862,312.53744 680.55191,312.77958 681.09894,312.87873 681.50737,313.68784 682.03135,313.30958 682.42886,313.61807 682.14569,314.26349 682.07975,314.7516 681.64343,315.1643 681.311,315.50808 681.25716,316.13804 681.03109,316.73728 680.84471,317.25013 681.30047,317.63653 681.50377,318.30149 681.86689,318.65613 682.56619,318.35798 683.58918,318.51887 684.5437,318.88488 685.14533,319.77266 685.36454,320.23003 686.12632,319.84142 686.14517,320.62209 686.13181,321.12351 686.56625,321.48397 686.4656,321.97668 686.588,322.4459 687.58291,322.32478 688.05888,322.55478 688.38595,322.72384 689.57825,322.39862 689.29823,322.97064 688.83719,323.01984 688.42827,323.59235 689.00668,323.82396 689.5313,323.70297 690.05627,323.91827 690.58354,323.76657 690.91452,324.36549 689.97804,324.56355 689.72882,325.01436 689.12432,325.59475 689.15954,326.48977 688.91715,327.21687 689.60154,327.35097 688.59244,328.10722 688.49075,328.50728 688.42185,329.35979 688.47355,329.30177 688.95658,329.65171 689.0921,330.0206 689.06361,328.66393 689.85853,328.78948 690.41418,328.20631 691.07659,329.142 691.68881,329.0347 692.19072,329.33925 692.53993,329.80233 693.18679,329.75851 692.96583,330.63609 694.20663,330.86802 693.64112,330.12876 693.48734,329.52282 693.28042,329.16702 693.9555,329.73604 694.69295,329.97134 694.90506,331.09136 695.78163,330.98428 696.84473,330.83743 696.66526,331.61112 696.98996,331.96525 696.84043,332.65396 696.80497,331.23342 696.32258,331.84848 696.09847,332.29716 695.92259,332.81281 695.27946,332.4 694.52271,331.84046 695.17374,332.65175 695.6584,332.5642 696.25329,332.83312 695.84033,333.12781 695.56461,333.57992 695.29244,334.02881 695.57535,334.50864 695.92232,334.77252 695.89529,335.09713 695.75649,335.6792 695.29054,335.69428 694.86427,335.80224 694.53121,335.80841 694.18927,336.2251 693.78064,336.5621 693.77509,336.62201 693.37174,337.11241 692.64915,337.46499 694.23958,337.34616 693.82231,337.768 694.23221,337.89702 693.59556,338.59343 693.64436,338.75559 693.37503,338.89089 692.8226,338.53361 692.41809,338.94248 692.08754,339.3826 692.23574,339.92656 691.83543,340.26431 691.64169,340.5348 691.60848,340.96071 691.42139,341.3077 691.33461,342.2957 690.2445,341.06964 690.49073,340.46451 690.21971,339.76603 691.50017,338.97716 690.70564,338.61508 690.95118,337.6714 689.96939,338.55404 689.81483,337.75313 689.43699,337.85372 688.58036,338.88211 688.60599,338.24687 688.69633,337.73742 687.95946,337.59727 687.89047,337.15859 687.87534,336.33851 686.89547,337.23175 686.38125,337.27633 685.80704,337.25781 684.31574,337.7883 684.43869,336.9145 684.88617,335.80278 683.88026,336.96633 683.30697,336.25515 682.62858,336.49444 681.91834,336.63414 681.24785,336.90609 680.96709,336.13357 680.86011,334.63521 679.90707,334.70103 679.28154,335.43967 677.0889,335.3422 677.84245,336.62073 678.00595,337.29991 678.53182,338.00006 678.07623,338.67388 677.80212,339.21768 675.76071,339.32733 676.02928,338.25751 676.14749,337.47489 674.6051,338.5181 675.06533,337.50064 674.46003,337.17127 673.70032,336.78746 673.34567,336.20849 673.32,335.64053 672.44042,336.6909 672.04629,336.81344 671.55546,337.56951 671.30375,336.62039 670.93387,336.25124 670.61844,335.46445 670.50781,335.80431 669.99661,336.33076 669.66537,336.79718 669.04127,337.05833 668.53187,336.71938 667.68551,337.20603 668.03873,335.99852 667.7565,335.46962 667.2999,335.37595 666.51584,335.3821 666.03254,335.69272 665.48066,336.07213 664.77977,336.02395 664.27584,336.49355 663.84538,336.86103 663.03606,337.01408 662.85564,337.52308 662.3116,338.4802 664.05813,337.41663 663.41101,338.13748 662.93036,338.21759 662.33168,338.21569 661.93836,337.96488 661.20734,338.08861 661.6224,339.13948 661.15139,338.83015 661.01196,338.34856 662.06771,338.0072 661.39968,337.79254 661.01047,338.44551 660.67872,337.64446 660.27436,337.49901 659.79727,337.18049 659.93908,336.92346 659.89349,336.57113 659.85381,337.28552 659.19326,336.26101 659.32417,336.79826 659.15872,337.26609 658.58491,336.31891 658.77084,336.03841 659.22746,335.517 659.62659,335.58726 660.05169,335.07156 659.75711,334.51231 660.85417,334.38762 660.61418,333.96786 660.31579,333.57726 659.95255,333.38626 659.81842,332.98373 660.09134,332.43899 659.52517,331.96698 659.87245,331.44876 659.8859,330.5837 660.4622,330.59761 660.86882,330.01835 661.49682,329.14465 662.06913,328.1918 662.82194,327.43699 662.36038,327.17879 661.78269,326.94799 661.39951,326.66287 661.04717,326.30839 659.76441,327.37625 659.88083,326.57872 659.79511,325.65708 660.14413,324.8067 660.21422,323.89897 660.22576,322.90321 660.58302,323.49096 661.24407,323.44804 661.4163,322.98672 661.08916,322.51654 661.41222,322.07224 661.67419,321.66542 661.70869,320.21228 660.98322,320.70874 660.46897,321.25354 659.80172,320.31429 660.29312,320.27111 660.80328,320.01555 661.3954,319.81783 661.62268,319.17708 662.15762,318.82289 662.53,319.44246 663.07948,319.43568 663.49485,319.60579 663.93368,319.82753 664.40454,319.96908 664.65741,319.91502 665.5779,320.00309 665.10665,319.33712 664.75623,319.04236 664.07162,318.59628 664.23488,318.12737 664.66679,317.72825 664.78064,317.0576 665.07324,316.55712 665.02332,315.85309 665.60919,316.18977 666.07169,316.09704 666.76932,315.9852 668.05916,316.37075 667.57043,315.21869 666.97597,314.34846 669.06711,315.30593 668.66284,314.20718 668.78389,313.69893 668.19726,313.27326 668.60794,312.86133 669.07254,313.13263 669.72398,312.6598 670.06641,313.05617 669.29818,313.31842 669.73271,313.93299 670.08885,314.35231 669.7938,314.88015 670.3835,315.80288 669.91152,315.87554 670.58331,315.67136 671.25871,316.08867 671.87479,316.18948 672.38783,315.94436 672.75434,316.27715 673.19801,315.95765 673.77415,315.85952 674.01837,315.32392 674.15067,315.02545 674.3893,314.74779 674.73759,314.64051 674.8086,314.08297 674.85823,313.36251 675.33788,313.77126 675.69601,314.08537 676.1167,313.96161 677.03834,315.19655 677.20487,314.22716 677.23297,313.6602 677.77188,313.03982 678.41323,313.36837 678.70921,313.36955 679.94821,312.61007 679.01713,312.55938 677.90666,312.71524 677.86649,311.25811 678.85794,311.56941 679.08125,311.21227 679.28327,310.95513 679.60393,310.80097 z"
   id="Berlin"
   inkscape:connector-curvature="0"
   inkscape:label="#path4110" />
	
	
	
	
	
	
	
	
</g>
</svg>