<?xml version="1.0" encoding="UTF-8" standalone="no"?>
<!-- Created with Inkscape (http://www.inkscape.org/) -->

<svg
   xmlns:dc="http://purl.org/dc/elements/1.1/"
   xmlns:cc="http://creativecommons.org/ns#"
   xmlns:rdf="http://www.w3.org/1999/02/22-rdf-syntax-ns#"
   xmlns:svg="http://www.w3.org/2000/svg"
   xmlns="http://www.w3.org/2000/svg"
   xmlns:sodipodi="http://sodipodi.sourceforge.net/DTD/sodipodi-0.dtd"
   xmlns:inkscape="http://www.inkscape.org/namespaces/inkscape"
   width="1000"
   height="1000"
   id="svg2"
   version="1.1"
   inkscape:version="0.48.4 r9939"
   sodipodi:docname="Horseshoe.svg">
  <defs
     id="defs4" />
  <sodipodi:namedview
     id="base"
     pagecolor="#ffffff"
     bordercolor="#666666"
     borderopacity="1.0"
     inkscape:pageopacity="0.0"
     inkscape:pageshadow="2"
     inkscape:zoom="0.49497475"
     inkscape:cx="548.8946"
     inkscape:cy="526.94527"
     inkscape:document-units="px"
     inkscape:current-layer="layer1"
     showgrid="false"
     inkscape:window-width="1520"
     inkscape:window-height="881"
     inkscape:window-x="-4"
     inkscape:window-y="-4"
     inkscape:window-maximized="1" />
  <metadata
     id="metadata7">
    <rdf:RDF>
      <cc:Work
         rdf:about="">
        <dc:format>image/svg+xml</dc:format>
        <dc:type
           rdf:resource="http://purl.org/dc/dcmitype/StillImage" />
        <dc:title />
      </cc:Work>
    </rdf:RDF>
  </metadata>
  <g
     inkscape:label="Layer 1"
     inkscape:groupmode="layer"
     id="layer1"
     transform="translate(0,-52.362183)">
    <path
       style="font-size:medium;font-style:normal;font-variant:normal;font-weight:normal;font-stretch:normal;text-indent:0;text-align:start;text-decoration:none;line-height:normal;letter-spacing:normal;word-spacing:normal;text-transform:none;direction:ltr;block-progression:tb;writing-mode:lr-tb;text-anchor:start;baseline-shift:baseline;color:#000000;fill:#000000;fill-opacity:1;fill-rule:nonzero;stroke:none;stroke-width:150;marker:none;visibility:visible;display:inline;overflow:visible;enable-background:accumulate;font-family:Sans;-inkscape-font-specification:Sans"
       d="M 489.92295,185.20578 C 387.90007,185.20578 297.33666,236.53151 236.04795,311.58077 174.75924,386.63004 139.32919,486.20918 139.32919,594.76827 139.32919,648.09574 147.86913,699.24983 163.82919,746.39327 167.81921,758.17913 104.45419,797.14327 104.45419,797.14327 L 161.26669,913.61202 C 228.18284,874.84314 280.21063,839.75027 346.8917,791.61202 308.56041,743.12748 282.6417,673.20099 282.6417,594.76827 282.6417,514.67942 309.65865,443.43943 349.3292,394.86202 388.99976,346.28462 437.88718,321.17452 489.92295,321.17452 541.95873,321.17452 590.84614,346.28462 630.5167,394.86202 670.18725,443.43943 697.2042,514.67942 697.2042,594.76827 697.2042,669.42264 673.71032,736.36836 638.3917,784.45577 708.20146,837.61187 783.31886,882.13836 844.67295,909.61202 L 895.6417,800.39327 C 900.28159,789.38074 813.58313,753.86798 817.36045,742.36202 832.46977,696.33815 840.54795,646.58586 840.54795,594.76827 840.54795,486.20918 805.1179,386.63004 743.8292,311.58077 682.54049,236.53151 591.94584,185.20578 489.92295,185.20578 z M 486.8917,240.20578 C 494.70219,240.20578 501.04795,246.52029 501.04795,254.33077 501.04795,262.14126 494.70219,268.48702 486.8917,268.48702 479.08121,268.48702 472.7667,262.14126 472.7667,254.33077 472.7667,246.52029 479.08121,240.20578 486.8917,240.20578 z M 303.04795,331.11202 C 310.85844,331.11202 317.17295,337.45778 317.17295,345.26827 317.17295,353.07876 310.85844,359.39327 303.04795,359.39327 295.23746,359.39327 288.8917,353.07876 288.8917,345.26827 288.8917,337.45778 295.23746,331.11202 303.04795,331.11202 z M 684.8917,337.17452 C 692.70219,337.17452 699.0167,343.52028 699.0167,351.33077 699.0167,359.14126 692.70219,365.45577 684.8917,365.45577 677.08121,365.45577 670.73545,359.14126 670.73545,351.33077 670.73545,343.52028 677.08121,337.17452 684.8917,337.17452 z M 218.20419,523.04952 C 226.01468,523.04952 232.3292,529.36403 232.3292,537.17452 232.3292,544.98501 226.01468,551.33077 218.20419,551.33077 210.39371,551.33077 204.04794,544.98501 204.04794,537.17452 204.04794,529.36403 210.39371,523.04952 218.20419,523.04952 z M 763.67295,529.11202 C 771.48344,529.11202 777.8292,535.42653 777.8292,543.23702 777.8292,551.04751 771.48344,557.39327 763.67295,557.39327 755.86246,557.39327 749.54795,551.04751 749.54795,543.23702 749.54795,535.42653 755.86246,529.11202 763.67295,529.11202 z M 248.48545,747.29952 C 256.29594,747.29952 262.6417,753.61403 262.6417,761.42452 262.6417,769.23501 256.29594,775.58077 248.48545,775.58077 240.67496,775.58077 234.36045,769.23501 234.36045,761.42452 234.36045,753.61403 240.67496,747.29952 248.48545,747.29952 z M 743.48545,755.36202 C 751.29594,755.36202 757.61045,761.70778 757.61045,769.51827 757.61045,777.32876 751.29594,783.67452 743.48545,783.67452 735.67496,783.67452 729.3292,777.32876 729.3292,769.51827 729.3292,761.70778 735.67496,755.36202 743.48545,755.36202 z"
       id="path2985"
       inkscape:connector-curvature="0" />
  </g>
</svg>
