<?xml version="1.0" encoding="UTF-8" standalone="no"?>
<!-- Created with Inkscape (http://www.inkscape.org/) -->

<svg
   xmlns:dc="http://purl.org/dc/elements/1.1/"
   xmlns:cc="http://creativecommons.org/ns#"
   xmlns:rdf="http://www.w3.org/1999/02/22-rdf-syntax-ns#"
   xmlns:svg="http://www.w3.org/2000/svg"
   xmlns="http://www.w3.org/2000/svg"
   xmlns:sodipodi="http://sodipodi.sourceforge.net/DTD/sodipodi-0.dtd"
   xmlns:inkscape="http://www.inkscape.org/namespaces/inkscape"
   id="svg5488"
   version="1.1"
   inkscape:version="0.48.4 r9939"
   width="1000"
   height="1000"
   xml:space="preserve"
   sodipodi:docname="My Little Quiz logo.svg"><metadata
   id="metadata5167"><rdf:RDF><cc:Work
       rdf:about=""><dc:format>image/svg+xml</dc:format><dc:type
         rdf:resource="http://purl.org/dc/dcmitype/StillImage" /></cc:Work></rdf:RDF></metadata><defs
   id="defs5165" />


<sodipodi:namedview
   pagecolor="#002d8d"
   bordercolor="#666666"
   borderopacity="0"
   objecttolerance="10"
   gridtolerance="10"
   guidetolerance="10"
   inkscape:pageopacity="1"
   inkscape:pageshadow="2"
   inkscape:window-width="1840"
   inkscape:window-height="1181"
   id="namedview5490"
   showgrid="false"
   fit-margin-top="0"
   fit-margin-left="0"
   fit-margin-right="0"
   fit-margin-bottom="0"
   inkscape:zoom="2.8284271"
   inkscape:cx="205.76477"
   inkscape:cy="620.71316"
   inkscape:window-x="-4"
   inkscape:window-y="-4"
   inkscape:window-maximized="1"
   inkscape:current-layer="g5496" /><g
   id="g5496"
   inkscape:groupmode="layer"
   inkscape:label="1"
   transform="matrix(1.25,0,0,-1.25,36.3819,1750.83)"><rect
     style="fill:#002d8d;fill-opacity:1;stroke:none;stroke-width:17.50000000000000000;stroke-linecap:round;stroke-linejoin:round;stroke-miterlimit:4;stroke-opacity:1;stroke-dasharray:none"
     id="rect17664"
     width="1016.204"
     height="1012.8576"
     x="-5.5774097"
     y="-2.8182502"
     transform="matrix(0.8,0,0,-0.8,-29.10552,1400.664)" /><path
     sodipodi:type="arc"
     style="fill:#ffffff;fill-opacity:1;stroke:none"
     id="rainbow-cloud"
     sodipodi:cx="-24.846092"
     sodipodi:cy="63.074474"
     sodipodi:rx="57.579834"
     sodipodi:ry="49.889378"
     d="M 32.733742,63.074474 C 32.733742,90.627617 6.954372,112.96385 -24.846092,112.96385 -56.646556,112.96385 -82.425926,90.627617 -82.425926,63.074474 -82.425926,35.521332 -56.646556,13.185097 -24.846092,13.185097 6.954372,13.185097 32.733742,35.521332 32.733742,63.074474 z"
     transform="matrix(4.8561346,0,0,-5.1692229,549.20107,1439.2331)"
     inkscape:label="#path16310" /><path
     d="M 682.36419,1117.7697 C 663.3423,1258.6273 533.72934,1357.4067 392.87824,1338.3605 251.99635,1319.3305 153.24131,1189.7337 172.2794,1048.8842 191.27699,908.01859 320.87374,809.24735 461.75563,828.25303 602.63914,847.29113 701.38608,976.90408 682.36419,1117.7697"
     style="fill:#254e99;fill-opacity:1;fill-rule:nonzero;stroke:none"
     id="rainbow5"
     inkscape:connector-curvature="0"
     inkscape:label="#path7308" /><path
     d="M 664.54939,1124.7855 C 648.71132,1242.0925 540.76128,1324.329 423.45503,1308.5071 306.12367,1292.6447 223.87101,1184.7271 239.70098,1067.4201 255.53906,950.08062 363.5053,867.80366 480.82856,883.62553 598.1186,899.4798 680.40367,1007.4379 664.54939,1124.7855"
     style="fill:#29d766;fill-opacity:1;fill-rule:nonzero;stroke:none"
     id="rainbow4"
     inkscape:connector-curvature="0"
     inkscape:label="#path7310" /><path
     d="M 609.70348,1125.6118 C 596.78999,1221.4423 508.60716,1288.6022 412.75239,1275.6644 316.97863,1262.7185 249.76201,1174.56 262.70791,1078.7781 275.64571,982.97197 363.82854,915.78775 459.59419,928.70935 555.44897,941.67956 622.64939,1029.8299 609.70348,1125.6118"
     style="fill:#efec67;fill-opacity:1;fill-rule:nonzero;stroke:none"
     id="rainbow3"
     inkscape:connector-curvature="0"
     inkscape:label="#path7312" /><path
     d="M 589.09374,1121.2857 C 578.53772,1199.6011 506.46031,1254.5118 428.1619,1243.9396 349.86268,1233.3512 294.92766,1161.3143 305.48367,1083.007 316.08019,1004.6592 388.1414,949.78087 466.43252,960.36119 544.72283,970.94961 599.69836,1042.9703 589.09374,1121.2857"
     style="fill:#f6b7b7;fill-opacity:1;fill-rule:nonzero;stroke:none"
     id="rainbow2"
     inkscape:connector-curvature="0"
     inkscape:label="#path7314" /><path
     d="M 549.29197,1118.2153 C 541.32027,1177.1686 487.10627,1218.5258 428.12058,1210.5541 369.1268,1202.5905 327.81009,1148.3441 335.78988,1089.3746 343.72917,1030.4537 397.97559,989.08033 456.96937,997.02773 515.93075,1004.9832 557.27177,1059.2782 549.29197,1118.2153"
     style="fill:#ffffff;fill-opacity:1;fill-rule:nonzero;stroke:none"
     id="rainbow1"
     inkscape:connector-curvature="0"
     inkscape:label="#path7316" /><path
     style="font-size:medium;font-style:normal;font-variant:normal;font-weight:normal;font-stretch:normal;text-indent:0;text-align:start;text-decoration:none;line-height:normal;letter-spacing:normal;word-spacing:normal;text-transform:none;direction:ltr;block-progression:tb;writing-mode:lr-tb;text-anchor:start;baseline-shift:baseline;color:#000000;fill:#ffffff;fill-opacity:1;stroke:none;stroke-width:17.5;marker:none;visibility:visible;display:inline;overflow:visible;enable-background:accumulate;font-family:Sans;-inkscape-font-specification:Sans"
     d="M 519.81849,1108.9079 C 493.6563,1107.3255 503.40664,1104.0704 477.308,1101.6567 450.54552,1099.1817 404.47757,1096.2379 377.63107,1094.9645 340.91771,1093.2232 297.20661,1095.5279 262.66065,1095.2428 216.25375,1094.86 156.50972,1066.6082 109.78131,1057.2934 87.952066,1052.942 63.66806,1051.3355 46.08472,1041.9009 5.9455366,1020.3638 -12.950346,987.76893 -14.538799,956.73585 -16.715084,914.21845 -7.2242297,866.24622 6.7933393,832.78572 20.716419,799.55076 54.729752,786.23531 83.654573,783.67149 110.21233,781.31749 135.6027,785.72728 156.36388,791.36774 191.94038,757.80091 232.87116,742.3912 272.31397,738.50665 312.34798,734.56387 350.90545,741.26422 385.83366,748.6333 412.6704,754.29527 436.40324,759.46751 457.5303,762.60807 451.35979,750.49911 450.10045,739.20373 449.93532,731.21547 449.45773,708.11185 457.28735,687.62044 470.28988,673.08853 478.75387,663.629 490.33266,655.06323 500.66982,649.89851 515.06566,642.70597 534.42362,637.18325 557.27776,637.64527 604.53812,638.60074 645.14702,664.49931 662.7974,703.671 681.68991,745.59944 677.30884,806.78653 633.02507,849.29215 630.82049,851.40821 628.41027,852.83247 626.13895,854.76054 L 706.13944,856.58334 C 717.66539,856.84594 732.42027,860.5866 741.2789,872.3809 750.13753,884.1752 748.94919,894.02733 749.17768,897.49498 L 750.89921,923.62173 C 751.58511,934.03094 748.62072,944.86504 741.38017,953.49533 734.13962,962.12562 721.9968,967.83494 710.1901,967.67263 L 680.72156,967.26756 C 689.00455,978.21694 697.02728,988.90533 702.89892,995.72343 704.07292,997.08673 707.87061,1000.7833 712.21543,1006.3564 716.5489,1011.9149 722.90316,1020.5526 722.94967,1034.5085 722.98624,1045.4834 723.03451,1056.6001 723.05094,1066.0023 723.0871,1086.7003 705.22984,1107.9781 682.03803,1108.3317 640.65327,1108.9627 568.37308,1111.8447 519.81849,1108.9079 z"
     id="quiz-cloud"
     inkscape:connector-curvature="0"
     sodipodi:nodetypes="ssssssssscsscsssssscsssssscssssss"
     inkscape:label="#path7378-5" /><path
     style="font-size:medium;font-style:normal;font-variant:normal;font-weight:normal;font-stretch:normal;text-indent:0;text-align:start;text-decoration:none;line-height:normal;letter-spacing:normal;word-spacing:normal;text-transform:none;direction:ltr;block-progression:tb;writing-mode:lr-tb;text-anchor:start;baseline-shift:baseline;color:#000000;fill:#ffffff;fill-opacity:1;stroke:none;stroke-width:15;marker:none;visibility:visible;display:inline;overflow:visible;enable-background:accumulate;font-family:Sans;-inkscape-font-specification:Sans"
     d="M 344.48918,1199.415 C 331.81185,1200.1684 320.52626,1193.5628 314.00798,1183.5161 307.96812,1186.7485 302.50484,1188.8294 296.89395,1188.782 292.97382,1188.7489 289.00089,1188.7421 285.45084,1188.6807 269.94383,1188.4125 257.36053,1175.4944 257.5013,1160.0223 257.65423,1143.2144 257.86842,1125.9122 258.1089,1110.8068 258.34497,1095.9785 270.94681,1082.5985 286.96983,1082.8573 297.76784,1083.0317 308.69837,1083.2007 317.95737,1083.3636 321.85295,1083.4321 325.54453,1084.273 328.89414,1085.6927 332.53723,1084.122 336.49933,1083.1704 340.74232,1083.2623 345.41049,1083.3635 350.105,1083.5533 354.10324,1083.675 360.13918,1083.8586 365.45632,1086.6224 370.00832,1090.351 374.98278,1085.2771 381.84272,1082.0681 390.05908,1081.9459 392.07258,1081.916 394.11257,1081.8766 396.13507,1081.8446 408.5319,1081.6488 419.57577,1090.8278 423.27448,1102.503 427.19928,1092.0078 436.80578,1084.1267 448.89489,1083.7687 451.15077,1083.7019 453.49092,1083.4987 455.47721,1083.4649 463.99108,1083.3198 471.47801,1087.1747 476.74316,1092.9839 481.29548,1089.9387 486.50142,1087.8583 492.13565,1087.9206 492.14217,1087.9207 492.12916,1087.8193 492.13565,1087.8193 L 492.43945,1087.8193 C 503.16995,1087.8193 514.02994,1088.0956 523.22445,1088.2244 526.37479,1088.2685 529.23996,1089.1953 532.03463,1090.1485 536.0927,1088.1949 540.44661,1086.8506 544.89547,1087.1105 L 574.364,1088.832 C 577.32383,1089.0049 583.69285,1088.5996 590.87043,1095.0092 596.68935,1100.2055 600.2211,1108.4792 600.59201,1116.0727 600.72277,1118.7497 600.93292,1122.4147 598.46542,1128.9335 598.18086,1129.6853 597.65581,1130.624 597.25022,1131.4652 597.79945,1133.1091 597.89263,1134.2747 597.87839,1136.326 597.8594,1139.0605 597.95139,1140.3069 597.35149,1142.4019 601.4256,1149.8352 600.96643,1154.7684 600.89581,1157.4906 600.82628,1160.1709 600.83981,1162.7607 600.79455,1165.0856 600.48471,1181 587.95157,1192.8867 572.54121,1193.0352 562.88736,1193.1283 553.22539,1193.6285 543.579,1193.2377 535.5841,1192.9138 528.10892,1189.7089 523.22445,1185.0351 517.8781,1190.5336 510.60001,1193.7744 502.23173,1193.6476 498.28783,1193.5878 494.31617,1193.7279 490.92045,1193.5415 485.39432,1193.2382 479.9737,1191.1118 476.0343,1188.5794 473.95421,1189.0282 471.92644,1189.7833 469.75578,1189.6934 456.44317,1189.1422 442.98848,1188.6985 431.57833,1188.0731 428.09801,1187.8823 424.6241,1186.8039 421.85675,1185.6427 418.24599,1187.2239 414.41073,1188.1376 410.41364,1187.9718 397.10108,1187.4196 383.65461,1186.8014 372.23619,1186.3516 371.03928,1186.3045 369.96042,1185.7185 368.99566,1185.5415 362.10748,1193.7773 354.21024,1198.8373 344.48918,1199.415 z"
     id="little-cloud"
     inkscape:connector-curvature="0"
     sodipodi:nodetypes="scsssssscsscsscsscsssscssssscscsssscsscsscsscs"
     inkscape:label="#path7340-9" /><path
     style="font-size:medium;font-style:normal;font-variant:normal;font-weight:normal;font-stretch:normal;text-indent:0;text-align:start;text-decoration:none;line-height:normal;letter-spacing:normal;word-spacing:normal;text-transform:none;direction:ltr;block-progression:tb;writing-mode:lr-tb;text-anchor:start;baseline-shift:baseline;color:#000000;fill:#ffffff;fill-opacity:1;stroke:none;stroke-width:14;marker:none;visibility:visible;display:inline;overflow:visible;enable-background:accumulate;font-family:Sans;-inkscape-font-specification:Sans"
     d="M 198.00675,1012.0972 C 206.51725,1012.2606 214.87098,1016.4677 220.0322,1023.2365 222.06428,1025.9015 224.09636,1028.5665 226.12844,1031.2315 238.74036,1047.7716 249.34173,1065.2942 258.76662,1083.8698 271.53428,1109.0336 285.07225,1139.421 273.57684,1172.9843 264.94781,1198.1786 243.46456,1216.9673 216.86763,1220.0732 214.40101,1220.3612 212.66338,1220.6673 210.41189,1220.7061 182.27416,1221.1916 160.04586,1208.1287 145.3482,1191.592 140.31271,1192.695 134.23019,1193.8518 128.25948,1194.1236 113.55031,1194.7932 98.788604,1191.5121 84.081999,1182.2248 67.176084,1171.5486 60.03283,1155.0407 58.132471,1150.7056 51.866466,1136.4115 49.077734,1118.5619 55.727393,1098.4268 66.41866,1066.0537 94.583884,1050.498 119.39867,1038.2999 144.21346,1026.1018 168.72788,1018.6876 180.53829,1015.5149 183.78011,1014.644 187.03647,1013.8281 190.28519,1012.9833 192.80043,1012.3292 195.40831,1012.0473 198.00675,1012.0972 z"
     id="my-cloud"
     inkscape:connector-curvature="0"
     inkscape:label="#path17645"
     sodipodi:nodetypes="ssssssscssssssss" /><path
     style="fill:#ea1900;fill-opacity:1;fill-rule:nonzero;stroke:none"
     d="M 342.79542,1176.1802 C 338.33308,1175.5839 334.72012,1171.8282 334.3903,1167.1675 334.03721,1161.8317 338.0753,1157.191 343.40301,1156.8383 348.74609,1156.4687 353.34715,1160.525 353.73219,1165.851 354.07718,1171.1873 350.0553,1175.8271 344.71948,1176.1802 344.05368,1176.2273 343.43289,1176.2654 342.79542,1176.1802 z"
     id="little-idot"
     inkscape:label="#path4106" /><path
     style="fill:#ea1900;fill-opacity:1;fill-rule:nonzero;stroke:none"
     d="M 666.40625 289.625 L 652.5 289.75 C 652.48751 289.75025 652.4812 289.74963 652.46875 289.75 C 650.75651 289.80462 649.45245 291.38938 649.4375 293.1875 L 649.4375 293.21875 L 650.0625 354.1875 C 650.08416 355.972 651.50106 357.32338 653.28125 357.28125 L 653.34375 357.28125 L 691.9375 356.65625 C 693.72738 356.61988 695.22046 355.19 695.28125 353.4375 C 695.28169 353.42475 695.28096 353.419 695.28125 353.40625 L 695.0625 350.71875 L 695 350.59375 L 695 350.53125 C 695.02651 348.78925 693.72894 347.45087 692 347.46875 L 691.96875 347.46875 L 691.9375 347.46875 L 679.59375 347.34375 L 679.53125 347.34375 C 675.53697 347.39987 672.31694 344.15638 672.125 340.25 L 670.4375 294.6875 L 670.3125 294.6875 L 670.21875 292.8125 C 670.12376 291.20287 668.1577 289.543 666.5 289.625 L 666.46875 289.625 L 666.40625 289.625 z M 717.40625 290.25 C 715.68771 290.2235 714.20786 291.72225 714.21875 293.4375 L 714.59375 355.15625 L 714.59375 355.21875 C 714.64806 357.0345 715.83187 358.291 717.65625 358.1875 L 754.5 355.875 C 755.79435 355.80175 756.51684 355.57162 756.65625 355.46875 C 756.79566 355.36575 756.93485 355.31225 756.9375 354.1875 L 756.9375 354.15625 C 756.97169 352.55463 756.82018 350.74113 756.40625 349.625 C 756.19929 349.067 755.94469 348.72013 755.71875 348.53125 C 755.49281 348.3425 755.29445 348.25 754.75 348.25 L 749.625 348.71875 L 749.53125 348.75 L 749.46875 348.75 C 746.99164 348.7655 744.41567 349.20837 741.9375 348.75 C 740.69841 348.52075 739.37011 347.96625 738.4375 346.84375 C 737.57225 345.80225 737.17881 344.392 737.09375 342.8125 L 736.84375 341.5625 L 736.8125 341.46875 L 736.8125 341.375 C 736.68016 339.94013 736.4525 337.73163 737 335.5625 C 737.27375 334.478 737.7749 333.36825 738.71875 332.46875 C 739.64583 331.58525 740.96325 331.01037 742.4375 330.9375 C 742.46419 330.93612 742.47322 330.9385 742.5 330.9375 L 749.90625 330.3125 L 750.0625 330.3125 L 750.15625 330.3125 C 751.41206 330.3765 752.22341 330.25075 752.59375 330.125 C 752.96409 329.99925 752.90291 329.99688 752.9375 329.9375 C 753.00667 329.81888 753.05144 328.84963 753.125 327.40625 C 753.16653 326.59175 753.21654 325.95113 753.1875 325.59375 C 753.1764 325.45711 753.16566 325.41673 753.15625 325.375 C 753.10285 325.35937 753.00832 325.34389 752.8125 325.3125 C 752.34464 325.23737 751.50918 325.208 750.25 325.3125 L 750.15625 325.3125 L 750.125 325.3125 L 744.9375 325.4375 C 742.70628 325.49087 740.98009 325.22337 739.59375 324.53125 C 738.20741 323.839 737.25939 322.65638 736.84375 321.46875 C 736.01249 319.09337 736.57886 316.84762 736.53125 315.9375 L 736.40625 313.5625 L 736.40625 313.375 L 736.46875 313.1875 C 736.74192 311.25238 737.58195 309.13838 739.59375 308.03125 C 741.58199 306.93713 744.15265 306.68525 748.03125 306.875 C 748.07723 306.87712 748.07865 306.87262 748.125 306.875 L 754.6875 306.78125 C 756.24867 306.74388 756.49566 306.41425 756.78125 305.90625 C 757.06684 305.39825 757.22746 304.33088 757.1875 303.03125 L 757.1875 302.96875 L 757.1875 302.9375 L 757.1875 293.75 L 757.1875 293.71875 C 757.13117 292.0145 755.56606 290.55087 753.84375 290.53125 L 717.40625 290.25 z M 626.84375 294.6875 L 579.65625 296.71875 C 577.83218 296.81987 576.3742 298.2845 576.375 299.96875 C 576.375 299.98125 576.37482 299.98737 576.375 300 L 577.5 312.90625 L 577.5 312.9375 L 577.5 313.03125 C 577.54919 314.89463 578.82958 316.12363 580.59375 316.03125 L 588.96875 315.625 C 592.92658 315.39925 596.29021 318.54275 596.5 322.46875 L 596.5 322.5 L 597.25 359.15625 C 597.36219 360.93838 598.96691 362.44862 600.71875 362.46875 L 600.75 362.46875 L 608.4375 362.71875 C 608.45074 362.719 608.48681 362.71875 608.5 362.71875 C 610.19119 362.72313 611.49728 361.35537 611.5 359.53125 L 611.5 359.5 L 611.5 359.46875 L 612.34375 321.6875 C 612.34381 321.6745 612.34363 321.66925 612.34375 321.65625 C 612.38098 317.81063 615.39391 314.3645 619.34375 314.21875 C 619.35699 314.21825 619.36174 314.21912 619.375 314.21875 L 626.9375 313.875 L 626.96875 313.875 L 627 313.875 C 628.6564 313.84037 630.19056 312.212 630.21875 310.40625 L 629.84375 297.71875 L 629.84375 297.625 L 629.84375 297.59375 C 629.86987 295.86363 628.5739 294.626 626.84375 294.6875 z M 409.8125 295.71875 L 395.90625 295.84375 C 394.15868 295.87725 392.80195 297.44725 392.8125 299.28125 L 393.4375 360.25 L 393.4375 360.28125 C 393.49218 362.09488 394.86526 363.41675 396.625 363.375 L 435.3125 362.875 L 435.375 362.875 C 437.09375 362.81875 438.54689 361.2945 438.5625 359.5 L 438.4375 356.6875 L 438.4375 356.65625 L 438.4375 356.625 C 438.45175 354.865 437.14364 353.55075 435.40625 353.5625 L 435.375 353.5625 L 422.90625 353.40625 L 422.8125 353.40625 C 418.89526 353.44125 415.61239 350.3535 415.40625 346.46875 L 413.65625 298.875 L 413.65625 298.84375 C 413.5375 297.25688 411.57156 295.63213 409.9375 295.71875 L 409.84375 295.71875 L 409.8125 295.71875 z M 552.65625 296.84375 L 505.46875 298.875 C 503.64611 298.97688 502.2766 300.417 502.3125 302.15625 L 503.34375 315.09375 L 503.34375 315.125 L 503.34375 315.15625 C 503.39125 316.95575 504.74629 318.24725 506.53125 318.1875 L 506.5625 318.1875 L 514.90625 317.65625 L 514.9375 317.65625 L 514.96875 317.65625 C 518.81699 317.57375 522.10858 320.60212 522.3125 324.5 L 522.3125 324.53125 L 523.0625 361.1875 C 523.16136 362.945 524.82965 364.60525 526.53125 364.625 L 534.28125 364.75 C 536.04141 364.7775 537.42773 363.36125 537.4375 361.53125 L 537.4375 361.5 L 538.1875 323.71875 C 538.18742 323.7055 538.1875 323.70075 538.1875 323.6875 C 538.18631 319.7555 541.38699 316.5155 545.28125 316.375 C 545.2943 316.3745 545.29943 316.37537 545.3125 316.375 L 552.75 316.03125 C 554.49475 315.93188 556.15399 314.25175 556.1875 312.5 L 555.6875 299.84375 L 555.6875 299.8125 L 555.6875 299.75 C 555.71463 297.98275 554.41779 296.77587 552.65625 296.84375 z M 475.46875 320.25 L 461.21875 321.25 L 461.1875 321.25 L 461.09375 321.25 C 459.36795 321.286 458.12023 322.66163 458.25 324.46875 L 460.40625 359.78125 L 460.40625 359.8125 C 460.49445 361.48625 462.16515 362.97625 463.90625 362.96875 L 463.96875 362.96875 L 480.125 362.34375 L 480.15625 362.34375 C 481.94484 362.30775 482.95075 361.12487 482.75 359.375 L 482.75 359.34375 L 479.0625 323.4375 L 479.0625 323.40625 C 478.8304 321.64587 477.18485 320.1835 475.53125 320.25 L 475.46875 320.25 z "
     transform="matrix(0.8,0,0,-0.8,-29.10552,1400.664)"
     id="little" /><path
     style="fill:#00af3e;fill-opacity:1;fill-rule:nonzero;stroke:none"
     d="M 214.06936,1191.4451 C 212.77755,1191.6012 211.69453,1191.7836 210.54188,1191.8048 181.18431,1192.3456 164.64079,1175.6764 157.40134,1158.0119 149.04709,1161.663 138.69584,1164.9676 127.92624,1165.3433 117.42723,1165.7095 108.16135,1163.2406 100.21233,1158.0437 90.460616,1151.6682 86.591984,1142.9827 84.586144,1138.5399 80.193858,1128.8112 79.636177,1117.3818 83.134738,1107.1716 95.751445,1070.3508 166.95985,1048.0221 188.53165,1042.4096 L 198.01322,1039.9427 203.81043,1047.5584 C 213.46713,1060.2442 260.27855,1125.5835 247.35465,1163.2909 242.07733,1178.6882 228.91822,1189.6502 214.06936,1191.4451 z"
     id="my-heart"
     inkscape:label="#path5289" /><path
     style="fill:#ffffff;fill-opacity:1;fill-rule:nonzero;stroke:none"
     d="M 236.44295,1142.3529 C 235.26179,1138.1363 233.98406,1133.8298 232.7258,1129.5625 231.48579,1125.3571 230.28251,1121.1959 229.03495,1116.973 227.75877,1112.6532 226.45207,1108.3988 225.2174,1104.1958 223.99057,1100.0195 222.74171,1095.7537 221.51339,1091.5059 219.9348,1086.0468 216.88188,1081.6071 212.30365,1078.107 207.76636,1074.6382 202.95155,1072.3909 197.88436,1071.7222 196.58404,1071.5506 195.31119,1071.4726 194.07719,1071.5057 192.02191,1071.5608 190.11677,1071.8014 188.16617,1072.3817 186.19255,1072.9688 184.33365,1073.9078 182.70574,1075.1392 181.10674,1076.3487 179.90343,1077.8056 178.97493,1079.4065 177.54352,1081.8745 177.04932,1083.8397 176.92229,1087.1308 176.86517,1088.6107 177.69874,1091.1149 178.97692,1092.6832 180.21988,1094.2083 181.7634,1095.1833 183.54067,1095.5582 183.91659,1095.6375 184.20017,1095.6965 184.4838,1095.7411 184.76743,1095.7857 185.11446,1095.8398 185.41377,1095.8236 187.77648,1095.6957 189.65003,1094.6684 191.04873,1092.839 192.47528,1090.9731 193.19064,1088.9641 193.2113,1086.7344 193.22616,1085.1309 192.74735,1083.1895 191.95155,1081.7928 191.11075,1080.3171 189.76176,1079.1709 188.03809,1078.4242 188.69737,1078.1901 189.27087,1078.108 189.93272,1078.0741 193.48391,1077.8925 196.17783,1079.4971 198.21275,1082.8115 200.25928,1086.1448 202.05603,1089.7904 203.33926,1093.8853 203.96459,1095.8808 204.5069,1097.8743 205.0317,1099.7916 205.5562,1101.7077 206.02855,1103.5053 206.43129,1105.0213 204.94623,1103.6633 203.20662,1102.416 201.26033,1101.4088 199.2626,1100.375 197.30529,1099.6982 195.1689,1099.3466 194.28901,1099.2018 193.41638,1099.1802 192.59293,1099.1732 190.93056,1099.1591 189.2584,1099.6543 187.85215,1100.4066 186.3263,1101.2228 184.99359,1102.5221 183.99464,1104.4862 183.32866,1105.7956 183.01424,1107.1063 182.76093,1108.3245 182.12866,1107.4268 181.45429,1106.536 180.78629,1105.7233 177.29483,1101.4756 172.51965,1099.5176 166.27974,1099.4521 165.25548,1099.4414 164.25965,1099.4876 163.34157,1099.6325 161.77181,1099.8802 160.29302,1100.4536 158.84105,1101.1409 157.45404,1101.7975 156.28123,1102.9133 155.39356,1104.4519 154.73604,1105.5916 154.26409,1106.7357 154.00686,1107.9016 153.74618,1109.0831 153.71384,1110.3388 153.67683,1111.6216 153.64424,1112.751 153.73328,1113.727 153.89668,1114.861 154.09085,1116.2085 154.49277,1117.6119 154.83729,1118.9252 155.3209,1120.7687 155.88502,1122.4825 156.42456,1124.0282 156.64973,1124.6733 156.84103,1125.3633 157.11541,1126.1846 157.75023,1128.0848 158.15742,1130.1933 158.2795,1131.9557 158.3657,1133.2001 157.88909,1134.1288 156.8486,1134.2878 155.6854,1134.4656 154.46378,1133.5986 153.42041,1132.2855 152.39949,1131.0007 151.41164,1129.612 150.61983,1128.0563 150.1794,1127.191 149.80914,1126.3999 149.47477,1125.5508 149.13536,1124.6889 148.8634,1123.9428 148.67037,1123.3071 148.10177,1121.4347 147.57993,1119.5718 147.01736,1117.7021 146.45172,1115.8222 145.9192,1113.9055 145.36437,1112.0971 144.76456,1110.1422 144.12727,1108.2898 143.59782,1106.4048 143.05596,1104.4756 142.45389,1102.6286 141.94482,1100.7997 L 122.36383,1101.0143 C 123.12849,1103.4225 123.83021,1105.7929 124.52839,1108.1864 125.22365,1110.5699 125.9755,1113.0322 126.71924,1115.5594 127.41792,1117.9335 128.10113,1120.3587 128.78338,1122.7447 129.47258,1125.155 130.28297,1127.6372 130.96109,1130.0173 131.20386,1130.8694 131.35649,1131.7127 131.39015,1132.5144 131.44823,1133.8976 130.77031,1134.5156 129.63172,1134.6851 128.83431,1134.8038 128.20173,1134.4139 127.60563,1134.0311 126.70672,1133.4539 125.96365,1132.5989 125.38235,1131.8711 124.32697,1130.5497 123.25018,1128.6143 122.07021,1126.0748 120.89535,1123.5463 119.56555,1120.1045 118.28008,1115.8472 117.3584,1112.7947 116.59484,1110.392 116.08923,1108.4743 115.39398,1105.8373 114.8565,1103.6556 113.99878,1101.0882 L 95.435039,1101.2717 107.91558,1143.5539 126.47933,1143.3704 125.62235,1140.7251 C 127.13907,1141.8256 128.85445,1142.6921 130.77541,1143.4207 132.69783,1144.1499 134.58964,1144.7239 136.574,1144.8063 136.9566,1144.8222 137.9223,1144.8216 138.30951,1144.8195 139.25513,1144.8144 139.60637,1144.6526 140.51627,1144.4944 141.50918,1144.3217 142.3899,1143.9938 143.262,1143.6243 144.65036,1143.0361 145.90039,1142.1649 147.00232,1140.9898 148.10146,1139.8177 148.89565,1138.2582 149.36208,1136.3914 151.37057,1138.9391 153.66675,1140.9144 156.15387,1142.2428 158.63021,1143.5655 161.19661,1144.2466 163.865,1144.1951 164.85649,1144.176 165.86811,1144.118 166.89043,1143.9011 167.8858,1143.6899 168.82718,1143.3367 169.82384,1142.9043 172.36078,1141.8036 174.27478,1140.2269 175.59752,1137.8589 176.90927,1135.5106 177.51811,1132.8513 177.52346,1129.9469 177.52851,1127.2022 176.78319,1124.4179 175.96975,1121.9799 175.67638,1121.1006 175.48747,1120.1371 175.20002,1119.221 174.72632,1117.7113 174.23586,1116.1027 173.89245,1114.6942 173.64972,1113.6987 173.55731,1112.7623 173.56381,1112.184 173.57179,1111.4736 174.13865,1111.3734 174.57629,1111.3365 175.388,1111.268 176.00151,1111.6678 176.61553,1112.0908 177.55002,1112.7346 178.56737,1113.6248 179.53329,1114.8749 180.43647,1116.0438 181.2275,1117.2852 181.95376,1118.5411 182.61233,1119.6799 183.30743,1120.6869 183.79331,1121.6706 184.29713,1122.6906 184.56401,1123.6053 184.85111,1124.2896 185.80836,1126.5711 186.51665,1129.1722 187.08979,1131.2478 187.63997,1133.2402 188.21897,1135.3097 188.79537,1137.2545 189.3752,1139.2109 189.9369,1141.1371 190.47465,1143.0603 L 209.44004,1142.8242 C 208.68733,1140.5696 208.0913,1138.4075 207.44162,1136.141 206.79787,1133.8952 206.12791,1131.6675 205.43006,1129.3573 204.75798,1127.1325 204.06,1124.9348 203.43164,1122.674 202.80882,1120.4332 202.20173,1118.1947 201.53362,1115.9776 201.31483,1115.2516 201.1521,1114.439 201.14401,1113.7818 201.12811,1112.4893 202.10696,1112.0423 203.15583,1111.9864 205.0203,1111.887 206.84471,1113.6499 208.61125,1116.9915 210.36352,1120.3061 211.89247,1123.8978 213.19627,1127.8299 214.25534,1131.024 215.17283,1134.0329 215.91183,1136.8704 216.61653,1139.5762 217.11107,1141.4283 217.47756,1142.589 z"
     id="my" /><path
     style="fill:#0045c5;fill-opacity:1;fill-rule:nonzero;stroke:none"
     d="M 536.82194,1080.7872 C 529.22754,1080.8452 522.40248,1074.779 522.94843,1067.2175 L 524.97376,1039.1667 C 525.51857,1031.6211 531.17476,1024.6941 538.746,1024.7869 L 604.87299,1025.597 C 612.45958,1025.6899 612.91467,1021.9285 608.21479,1015.9767 L 540.16373,929.79898 C 535.46138,923.84407 530.1519,914.5195 530.54342,906.91276 L 531.25228,893.14052 C 531.6433,885.54343 536.45576,880.56497 541.58146,880.68475 596.46788,881.96736 651.35429,883.25032 706.24071,884.53288 721.09978,884.8801 721.36536,891.42909 721.83574,899.01398 L 723.45601,925.14072 C 723.92689,932.73367 719.00242,939.00864 711.4053,938.91296 L 630.99974,937.90029 C 623.42492,937.80489 624.31283,940.53962 629.27821,946.30541 644.53392,964.02023 666.98485,996.13523 682.24056,1013.8501 687.20509,1019.6148 695.50646,1026.6542 695.50646,1034.2047 L 695.50646,1065.6985 C 695.50646,1073.297 690.25606,1079.6152 682.64563,1079.6733 z M 480.4159,1003.3638 C 479.28963,1003.391 478.22669,1003.3249 477.27664,1003.2625 L 463.40314,1002.3511 C 455.81234,1001.8525 451.04088,996.94534 451.1499,991.81943 L 453.21387,894.77979 C 453.52993,879.91993 460.20493,879.73901 467.79624,879.38729 L 494.02426,878.1721 C 501.62367,877.82001 507.9563,882.83628 507.59396,890.42534 506.19916,919.63879 503.06488,957.91192 500.16287,994.04733 499.6314,1000.6651 488.29982,1003.1737 480.4159,1003.3638 z M 386.08042,1066.4074 C 380.50355,1066.4352 374.7946,1065.767 369.16893,1065.3947 361.57835,1064.8924 356.71905,1059.9863 356.91568,1054.863 357.12223,1049.4812 359.41355,989.78243 360.66254,957.24219 361.20293,943.16319 362.09324,907.37243 342.83965,905.39376 308.12762,901.82643 302.26787,923.08522 301.0166,931.21671 294.79253,971.66472 293.92633,1016.7246 290.18109,1052.5339 289.49047,1059.137 278.31464,1061.7076 270.43414,1061.8504 264.96791,1061.5247 259.15849,1061.2106 253.42137,1060.8377 245.83057,1060.339 235.26978,1037.9394 235.31369,1032.8126 235.95768,957.59473 244.44268,894.04977 256.9657,878.86195 274.69494,857.36009 303.44894,849.54378 327.64968,852.53268 343.7306,854.51863 359.48202,861.96484 372.30819,875.62143 373.54027,876.93323 375.99817,875.01237 377.97911,874.91256 386.68802,874.47376 395.39694,874.03492 404.10585,873.5961 411.70375,873.21326 417.77206,878.25225 417.67555,885.84934 416.91179,945.98233 411.98577,1000.0307 405.92865,1056.9896 405.22659,1063.5915 393.97705,1066.3681 386.08042,1066.4074 z M 126.49028,1029.7489 C 122.11878,1029.7091 118.04786,1029.3272 114.43957,1028.8375 89.184877,1025.4104 72.426198,1020.4295 56.515165,1014.7615 38.75128,1008.4334 16.354229,990.32697 14.18579,954.60926 12.016348,918.87503 21.902673,871.55897 33.730213,843.31743 51.346711,801.25315 117.52979,808.42126 155.14868,819.51981 158.72864,820.57599 162.31925,821.74986 165.88293,823.06414 168.91115,819.39959 171.97652,815.94117 175.19944,812.83623 206.57804,782.60635 240.92401,769.80262 275.94642,766.35423 310.96883,762.90583 346.66767,768.81277 380.75199,776.00422 414.83632,783.19567 447.30613,791.67164 475.87048,793.36129 504.43482,795.05095 529.09371,789.9543 547.55618,770.00052 554.44399,762.55635 560.46615,752.45744 561.32842,740.12692 562.49148,723.49524 555.15876,709.5284 541.27766,701.8482 538.51053,700.31719 535.62854,699.03096 532.56875,698.30387 505.99654,691.98961 501.72996,710.34275 501.17615,711.56978 504.70707,706.76695 534.65366,704.1208 543.40426,729.69647 547.34033,741.20055 540.08563,763.82925 516.16358,765.74733 484.41342,768.29308 479.35825,742.5575 479.10006,730.20281 478.75875,713.87074 485.12811,699.81305 493.27736,690.20256 499.23033,683.18216 521.53471,664.86752 557.48029,665.59481 595.20808,666.35816 624.75217,685.9887 637.78459,714.91157 650.94373,744.11565 648.25003,795.72861 614.18951,828.43126 590.18761,851.47628 564.48327,859.51617 537.63207,858.8112 507.20069,858.0122 475.20745,846.14007 442.64414,832.07685 388.63786,808.75297 341.31287,799.10654 301.7467,802.4181 262.18054,805.72966 230.37318,821.99923 207.40217,850.50735 219.36451,865.42349 224.71056,885.9105 217.22502,914.30521 207.27217,952.05912 196.68696,973.52722 183.60456,998.05253 169.66759,1024.1799 145.43346,1029.9216 126.49028,1029.7489 z M 147.95877,958.35612 C 156.95536,958.63392 165.97804,953.74291 171.14878,945.49528 183.15673,926.34191 168.11336,888.70261 163.25,877.54549 L 159.80694,869.64671 151.19929,870.05177 C 135.5997,870.78586 98.147811,873.99983 86.490034,892.63419 82.846081,898.45886 81.577649,905.52002 82.844442,912.17862 83.368943,914.93553 84.593519,920.95443 89.831827,926.45719 93.945317,930.77835 99.197325,933.53804 105.62939,934.8623 109.90027,935.74161 114.23851,935.86342 118.18643,935.4699 121.18999,945.30684 128.81337,954.32421 143.70558,957.74852 145.12207,958.07423 146.70843,958.31751 147.95877,958.35612 z"
     id="quiz"
     inkscape:connector-curvature="0"
     sodipodi:nodetypes="ssssssssssssssssssssssssssssssssssssssccssscssssssssssscsssssssscsssssssssscsssssscssssscss"
     inkscape:label="#path7378" /></g></svg>