<?xml version="1.0" encoding="UTF-8" standalone="no"?>
<svg xmlns="http://www.w3.org/2000/svg" xmlns:xlink="http://www.w3.org/1999/xlink" width="956pt" height="835pt" viewBox="0 0 956 835" version="1.1">
  <defs>
    <linearGradient id="lg1">
      <stop style="stop-color:#45aaae;stop-opacity:1;" offset="0" />
      <stop style="stop-color:#2b5959;stop-opacity:1;" offset="1" />
    </linearGradient>
    <linearGradient id="lg2">
      <stop style="stop-color:#419a9e;stop-opacity:1;" offset="0" />
      <stop style="stop-color:#2b5959;stop-opacity:1;" offset="1" />
    </linearGradient>
    <linearGradient xlink:href="#lg2" id="lg3" x1="507.7" y1="623.4" x2="436.5" y2="445.4" gradientUnits="userSpaceOnUse" />
    <linearGradient xlink:href="#lg1" id="lg4" x1="854.2" y1="640.7" x2="768.6" y2="468.0" gradientUnits="userSpaceOnUse" />
  </defs>
  <path d="M 205.2,611.1 C 216.9,606.0 229.5,603.8 242,601.5 L 235.6,835 57.4,835 C 59.1,817.7 62.3,800.7 66.6,783.9 76.8,744.7 93.6,706.7 119.0,675.0 141.5,646.7 171.4,624.2 205.2,611.1 z" style="fill:#1f2e5a;stroke:none;stroke-opacity:1" />
  <path d="M 178.3,637.4 C 181.3,635.5 184.1,633.2 187.8,632.9 L 178.1,835 75.3,835 C 79.3,794.3 89.2,753.7 108.3,717.3 124.8,685.6 148.3,657.1 178.3,637.4 z" style="fill:#365a92;stroke:none;stroke-opacity:1" />
  <path d="M 242,601.5 C 265.3,592.9 290.2,588.4 315.0,588.1 339.4,587.2 455.6,603.3 480.8,605.8 L 476.9,835 96.2,835 C 97.1,819.4 99.7,804.1 103,788.9 111.5,748.7 126.1,709.3 149.5,675.3 160.3,659.6 173.3,645.4 187.8,632.9 204.0,619.6 222.3,608.9 242,601.5 z" style="fill:#d74087;stroke:none;stroke-opacity:1" />
  <path d="M 247.4,619.2 C 280.3,606.2 319.4,602.7 354.4,606.7 L 480.8,622.2 491.0,835 112.1,835 C 114.0,817.3 117.2,799.8 121.2,782.5 129.7,747.1 143.4,712.5 165.1,683.1 185.8,654.6 214.6,632.0 247.4,619.2 z" style="fill:#f891db;stroke:none;stroke-opacity:1" />
  <path d="M 305.4,754.5 C 332.3,738.1 366.4,732.3 397.5,735.5 L 431.6,835 240.0,835 C 253.0,802.4 275.1,772.7 305.4,754.5 z" style="fill:#1f2e5a;stroke:none;stroke-opacity:1" />
  <path d="M 346.1,751.1 C 360.0,747.6 375.9,746.9 390.2,747.3 381.9,762.0 375.2,777.4 369.3,793.1 344.2,796.3 320.3,812.9 308.4,835 L 253.0,835 C 261.2,814.0 273.5,794.4 290.5,779.5 306.2,765.5 325.6,755.8 346.1,751.1 z" style="fill:#365a92;stroke:none;stroke-opacity:1" />
  <path d="M 333.0,835 C 340.6,825.3 352.0,817.9 362.6,811.9 360.0,819.5 357.7,827.2 355.6,835 z" style="fill:#365a92;stroke:none;stroke-opacity:1" />
  <path d="M 563.6,861.5 541.9,899.6 C 521.6,910.5 505.6,931.8 494.5,951.5 478.7,980.2 468.7,1011.8 461.8,1043.7 L 753.1,1043.7 C 763.2,1010.9 773.3,977.8 778.2,943.8 780.2,931.3 778.3,918.7 776.8,906.2 775.8,897.4 772.2,887.2 767.8,879.6 736.7,886.0 702.9,885.9 671.2,885.2 635.0,883.6 597.0,875.5 563.6,861.5 z" transform="scale(0.8,0.8)" style="fill:#f3f6d7;fill-opacity:1;stroke:none;stroke-opacity:1" />
  <path d="M 915.6,791.7 762.6,878.9 C 767.0,886.5 773.8,897.4 774.8,906.2 776.3,918.7 778.2,931.3 776.2,943.8 771.3,977.8 761.2,1010.9 751.1,1043.7 L 924.5,1043.7 C 917.4,1027.0 908.5,1010.8 895.8,997.9 890.8,992.8 885.4,988 878.9,984.8 879.4,980.2 881.8,976.1 883.4,971.8 898.1,939.7 909.6,906.2 919.3,872.3 923.0,861.5 922.1,849.9 922.3,838.7 922.4,824.2 920.3,805.5 915.6,791.7 z" transform="scale(0.8,0.8)" style="fill:#1f2e5a;fill-opacity:1;stroke:none;stroke-opacity:1" />
  <path d="M 626.7,700.4 722.1,646.3 C 725.3,663.9 723.8,683.8 719.1,701.1 709.9,730.0 698.3,758.0 687.4,786.3 681.3,802.2 677.0,818.7 672.1,835 L 617.3,835 C 623.4,817.0 628.3,798.6 631.8,780.0 636.4,754.2 636.6,725.0 626.7,700.4 z" style="fill:#365a92;stroke:none;stroke-opacity:1" />
  <path d="M 317.7,286 C 314.2,308.1 314.0,332.6 314.5,355.0 316.2,391.6 321.8,428.8 337.9,462.0 347.2,482.9 364.1,498.8 380.4,513.6 380.5,566.7 385.7,621.3 400.9,672.4 407.3,694.2 415.7,715.4 426.2,735.6 430.2,743.4 434.6,751.0 439.2,758.4 440.8,760.9 442.5,763.3 444.1,765.8 470.1,804.8 506.6,836.6 548.5,857.7 547.4,865.2 545.8,872.7 544.6,880.1 522.4,883.4 506.8,901.9 494.9,919.4 491.5,924.1 488.6,929.2 485.7,934.2 475.4,952.5 467.0,971.7 459.6,991.4 456.7,999.1 453.9,1007.0 451.3,1014.9 448.0,1024.4 445.2,1034.0 442.5,1043.7 L 463.8,1043.7 C 470.7,1011.8 480.7,980.2 496.5,951.5 507.6,931.8 521.6,912.5 541.9,901.6 540.7,917.7 539.2,933.9 539.0,950.1 539.2,953.5 535.6,955.2 533.5,957.3 507.9,980.7 488.0,1010.6 477.4,1043.7 L 495.8,1043.7 C 506.8,1020.5 521.8,999.4 538.0,979.5 538.3,1000.6 538.6,1021.7 539.9,1042.7 542.8,1040.6 544.0,1037.1 545.2,1033.9 548.1,1025.4 549.7,1016.5 551.4,1007.7 559.1,960.7 562.2,913.0 565.6,865.5 599.0,879.5 635.0,887.6 671.2,889.2 702.9,889.9 734.7,888.0 765.8,881.6 771.7,880.4 777.6,878.9 783.5,877.5 828.1,865.7 870.1,842.9 902.6,809.8 907.1,805.3 911.5,800.6 915.6,795.7 943.1,763.5 962.4,725.0 975.0,684.9 992.0,630.3 998.0,572.6 995.4,515.6 865.0,184.3 414.3,213.2 317.7,286 z" transform="scale(0.8,0.8)" style="fill:#b5ad4f;fill-opacity:1;stroke:none;stroke-opacity:1" />
  <path style="fill:#f3f6d7;fill-opacity:1;stroke:none;stroke-opacity:1" d="M 896.5,292.8 C 839.6,245.0 340.9,212.6 333.4,325.0 332.4,344.4 332.2,363.9 334.6,383.2 338.7,417.1 348.9,450.5 366.1,480.1 375.0,495.3 386.0,511.3 397.0,521.8 397.2,546.4 400.5,570.8 404.7,594.9 413.3,642.0 427.7,688.3 450.6,730.5 472.4,770.5 502.8,806.6 541.6,831 583.0,857.4 632.4,869.5 681.2,869.6 718.9,871.8 757.1,865.7 792.6,853.0 833.5,838.4 870.8,813.4 898.9,780.2 926.5,748.0 945.2,709.0 956.8,668.5 969.9,622.8 974.7,575.0 974.6,527.6 959.8,434.5 921.8,314.1 896.5,292.8 z M 375.1,365.5 C 379.0,367.8 387.0,370.0 391.1,372.0 392.5,384.4 396.7,402.2 399.9,414.1 390.6,401.2 379.8,380.6 375.1,365.5 z" transform="scale(0.8,0.8)" />
  <path d="M 692.9 817.0 C 694.4 812.4 695.3 807.6 697.6 803.3 C 709.2 810.6 716.8 822.5 722.0 835.0 L 687.8 835.0 C 689.5 829.0 691.1 823.0 692.9 817.0 Z" style="fill:#365a92" />
  <path d="M 389.0,325.3 C 397.0,323.2 419.7,322.5 432.2,325.2 449.7,328.6 466.0,341.2 477.1,354.9 489.8,370.6 494.6,390.5 496.8,410.4 500.4,443.3 490.0,476.3 480.5,507.7 473.3,521.9 462.0,533.9 448.6,542.5 434.6,551.5 417.4,555.9 400.9,553.3 385.7,551.3 371.6,543.8 360.2,533.6 349.0,523.4 341.4,513.6 333.9,496.9 326.4,480.2 314.4,428.5 323.7,400.2 333.0,371.9 350.4,335.5 389.0,325.3 z" style="fill:#ffffff;stroke:none;stroke-opacity:1" />
  <path style="fill:url(#lg4);fill-opacity:1;stroke:none;stroke-opacity:1" d="M 832.0,418.6 C 823.9,422.8 816.4,428.0 809.4,433.7 766.9,466.9 743.2,523.1 758.9,600.1 759.5,611.8 760.0,618.9 764.3,632.0 764.9,633.1 766.7,634.2 767,634.5 779.2,647.6 796.7,656.6 815,655.6 831.7,654.8 846.8,645.8 858.3,634.1 882.4,608.6 887.4,580.4 891.1,558.1 894.0,529.6 891.8,500.0 880.9,473.3 879.3,469.3 877.5,465.3 875.5,461.5 872.8,456.6 870.1,451.6 866.7,447.1 865.1,444.9 863.4,442.7 861.6,440.6 853.6,431.2 843.6,423.2 832.0,418.6 z" transform="scale(0.8,0.8)" />
  <path d="M 487.4,408.6 C 479.3,410.7 471.3,413.7 464.3,418.2 469.9,463.7 458.0,624.4 400.3,527.7 400.3,531.6 402.0,559.0 402.4,562.9 404.6,585.7 410.7,610.3 416.9,615.1 428.2,628.8 444.1,640.3 462.4,640.9 479.6,642.0 495.8,633.2 507.5,621.1 523.1,604.7 532.5,583.4 537.6,561.5 541.9,542.4 543.2,522.5 541.1,503.1 540.8,499.9 540.4,496.7 539.9,493.5 538.3,483.3 535.7,473.2 532.3,463.5 529.5,456.2 526.3,449.0 522.3,442.2 519.2,437.0 515.7,431.9 511.7,427.3 505.0,419.5 496.9,412.6 487.4,408.6 z" transform="scale(0.8,0.8)" style="fill:url(#lg3);fill-opacity:1;stroke:none" />
  <path d="M 362.2,52.2 C 402.4,39.3 445.0,36.8 486.9,37.7 511.3,39.0 535.4,43.6 558.9,50.0 599.2,61.2 637.6,78.3 673.8,99.1 678.6,101.8 683.7,104.4 687.4,108.5 L 654.6,180.4 496.4,282.0 C 483.2,297.7 464.6,308.4 444.9,313.8 438.0,315.9 430.8,316.2 424.0,318.1 419.7,319.6 415.2,319.1 410.8,319.8 404.2,320.8 397.4,320.1 390.8,320.1 388.9,319.5 386.9,319.3 384.9,319.3 376.0,319.2 367.2,317.5 358.3,317.2 352.8,316.9 347.2,315.9 342.0,313.8 338.0,311.8 333.6,310.9 329.4,309.4 323.8,307.4 318.2,305.1 312.8,302.4 309.6,300.8 306.4,299.0 303.3,297.2 288.4,287.9 275.5,275.2 266.7,260.0 261.1,250.8 257.2,240.6 254.1,230.4 250.5,215.5 248.3,200.2 248.6,184.9 250.4,153.9 263.0,123.7 283.7,100.7 304.5,77.3 332.7,61.7 362.2,52.2 z" style="fill:#d74087;stroke:none;stroke-opacity:1" />
  <path d="M 357.3,73.2 C 387.6,60.6 420.4,55.2 453.0,53.7 483.7,53.0 514.5,54.4 544.7,60.1 575.7,65.9 607.6,77.0 636.5,89.6 L 487.9,170.8 C 476.3,164.3 461.3,160.3 447.9,161.4 437.9,162.2 428.4,167.3 422.2,175.2 415.0,183.6 412.4,195.0 412.3,205.9 412.0,213.8 415.4,222.3 422.6,226.3 431.1,231.7 444.0,230.5 450.0,222.0 455,214.5 454.3,205.1 453.2,196.6 450.8,204.3 448.8,212.9 442.4,218.4 439.5,221.0 435.3,221.2 431.7,220.1 427.5,217.9 425.0,213.4 423.9,209.0 422.4,201.7 424.7,194.3 427.7,187.7 431.4,179.0 439.5,172.6 448.6,170.6 461.0,168.4 476.7,173.7 487.7,179.1 L 490.8,266.8 C 477.3,283.2 457.2,295.4 436.9,301.4 427.2,304.3 417.0,305 407,305.9 400.3,306.7 393.6,305.8 386.9,306.5 371.0,306.2 355.1,303.3 340.2,297.7 326.2,292.2 313.4,283.7 303.2,272.7 283.0,250.9 273.4,221.2 271.7,191.9 272.5,165.8 280.4,139.4 296.3,118.4 311.6,97.7 333.8,83.0 357.3,73.2 z" style="fill:#f891db;stroke:none;stroke-opacity:1" />
  <path d="M 342.0,313.8 C 347.2,315.9 352.8,316.9 358.3,317.2 361.5,321.3 364.6,325.5 367.7,329.7 374.8,325.2 382.6,321.8 390.8,320.1 397.4,320.1 404.2,320.8 410.8,319.8 415.2,319.1 419.7,319.6 424.0,318.1 428.4,318.3 432.7,319.1 437.0,320.3 453.4,325.6 468.9,334.6 480.1,347.9 491.8,361.5 498.2,379.0 500.5,396.6 503.1,417.3 500.9,438.3 496.5,458.5 493.6,471.7 489.7,484.6 485.0,497.2 483.3,501.5 481.3,505.6 480.4,510.2 480.4,509.5 480.5,508.3 480.5,507.7 490.0,476.3 497.0,443.3 493.4,410.4 491.2,390.5 484.6,370.6 471.9,354.9 460.8,341.2 445.4,330.4 427.9,327.1 415.4,324.4 402.3,323.8 389.9,326.9 383.4,328.5 377.1,330.9 371.4,334.5 375.9,335.8 380.4,337.1 384.4,339.5 389.4,342.6 393.7,346.7 397.4,351.2 400.6,355.0 403.2,359.3 405.4,363.8 408.4,369.9 410.7,376.4 412.3,383.0 413.6,388.2 414.4,393.5 414.8,398.8 415.8,406.4 415.1,414.0 414.4,421.5 412.1,437.8 406.5,454.1 395.5,466.5 388.3,474.7 378.0,481.2 366.8,480.9 359.9,481.2 353.0,479.1 347.2,475.2 343.7,473 340.6,470.1 337.7,467.0 333.2,462.2 329.5,456.5 326.8,450.5 324.8,446.1 322.5,441.7 321.8,436.9 320.5,430.4 319.8,425.8 320.3,421.4 324.5,428.4 332.3,436.9 340.4,439.3 344.7,440.1 349.9,440.3 353.6,437.4 358.8,433.5 360.7,426.4 360.1,420.2 358.9,408.9 352.3,398.1 342.5,392.4 339.2,390.4 335.3,389.5 331.5,389.3 330.8,391.5 330.1,393.8 329.2,396.0 328.8,395.9 328.0,395.5 327.6,395.4 327.1,394.4 326.7,393.3 326.2,392.3 316.9,392.4 307.6,392.9 298.3,393.4 293.9,393.6 289.5,392.6 285.0,392.4 281.4,392.2 277.8,391.2 274.3,390.2 273.2,390.1 272.9,388.6 273.8,388.0 275.8,387.0 278.1,386.7 280.3,386.2 284.5,385.2 288.7,384.6 292.9,384.1 305,383.2 317.1,384.2 329.2,383.4 332.0,375.2 335.2,367.0 339.8,359.6 328.1,355.9 316.0,353.8 304.8,349.1 299.0,346.7 293.1,344.5 287.8,341.1 286.6,340.5 287.1,338.0 288.8,338.7 308.3,339.9 327.2,345.6 346.2,349.6 350.0,344.3 354.8,339.9 359.5,335.4 353.3,328.6 347.7,321.1 342.0,313.8 z" style="fill:#000000;stroke:none;stroke-opacity:1" />
  <path d="M 541.2,99.2 C 561.0,88.7 583.7,84.7 605.9,85.1 615.7,85 625.4,86.0 634.9,88.0 653.5,91.3 671.4,98.4 687.4,108.5 689.9,110.7 692.7,112.4 695.3,114.6 707.7,124.2 717.5,137.0 724.9,150.9 L 716.6,234.9 C 714.3,253.1 709.0,271.1 699.9,287.2 691.7,301.8 680.2,314.7 666.0,323.8 646.8,336.2 623.6,341.6 601.0,341.6 584.9,340.6 569.1,336.8 554.2,330.9 530.3,321.3 509.2,304.4 496.4,282.0 493.9,277.0 491.3,272.0 489.2,266.8 482.5,250.1 480.1,232 479.6,214.0 480.1,201.7 481.5,189.4 484.5,177.5 485.1,175.3 485.7,173.1 486.3,170.8 489.9,158.8 494.7,147.0 501.5,136.4 511.2,120.8 524.9,107.7 541.2,99.2 z" style="fill:#1f2e5a;stroke:none;stroke-opacity:1" />
  <path d="M 574.9,100.8 C 592.2,96.1 610.4,96.5 627.9,99.1 665.2,104.9 698.8,128.9 716.9,162 718.3,164.7 721.3,169.1 722.9,171.7 L 717.1,219.0 C 716.4,217.1 715.8,212.0 715.5,210.0 713.9,198.9 710.7,187.8 704.9,178.1 699.4,168.8 691.2,160.9 681.1,156.9 664.7,150.1 643.8,156.0 634.0,171.0 624.3,186.0 623.4,204.7 625.0,222.0 625.8,233.3 628.0,245.0 634.4,254.6 639.3,262.2 647.8,267.7 657.0,268.3 664.0,268.7 672.0,267.6 677.2,262.2 682.2,257.0 684.7,249.9 686.0,243.0 688.0,232.3 687.7,221.4 686.3,210.7 685.4,204.5 683.4,197.7 677.9,194.1 674.7,192.0 670.6,193.0 667.4,194.5 662.0,197.0 659.5,203.3 659.3,208.9 658.9,216.3 659.2,224.0 662.1,231.0 663.9,231.1 665.9,230.1 665.5,228.0 664.6,220.3 662.8,212.1 665.7,204.6 667.1,200.6 672.5,198.2 676.2,200.7 679.3,203.1 680.4,207.2 681.3,210.8 683.7,219.4 682.6,228.4 680.9,237 679.5,243.5 677.2,250.4 672.0,255.0 667.3,259.1 660.4,258.9 654.8,257.2 646.9,254.4 642.4,246.6 639.8,239.1 636.3,228.1 634.6,216.3 636.5,204.8 638.0,192.7 641.4,179.4 651.3,171.3 658.6,165.1 669.2,165 677.9,168.0 686.0,170.8 692.1,177.6 695.8,185.2 701.8,197.9 703.5,212.1 703.4,225.9 701.3,247.9 695.2,270.1 682.2,288.2 671.1,304.4 654.5,316.5 636.0,323.0 622.6,327.7 608.2,330.5 594.0,328.6 574.9,326.7 555.9,320.2 541.0,307.9 528.6,298 519.4,284.6 512.7,270.3 504.9,252.9 500.6,234.0 499.7,215.0 500.3,186.6 505.8,156.7 523.7,133.8 536.2,117.3 554.9,105.9 574.9,100.8 z" style="fill:#365a92;stroke:none;stroke-opacity:1" />
  <path d="M 739.0,109.1 C 744.3,99.7 751.9,90.2 762.9,87.8 773.0,85.8 782.6,91.5 789.8,98.0 798.9,106.4 806,116.8 812.6,127.3 823.7,145.4 832.8,164.8 839.8,184.9 851.9,219.8 858.7,257.1 854.5,294.0 851.1,327.7 840.8,361.7 819.9,388.9 809.9,402.3 789.3,420.2 780.0,421.9 785.3,414.6 806.5,392.7 808.0,390.3 880.5,273.5 739.9,88.3 720.3,285.4 718.6,270 717.2,254.5 717.2,238.9 717.1,237.6 716.9,236.2 716.6,234.9 716.9,228.5 717.3,222.2 717.1,215.8 717.6,200.5 718.9,185.3 721.3,170.1 722.2,163.7 723.6,157.3 724.9,150.9 728.4,136.6 732.2,122.2 739.0,109.1 z" style="fill:#b5ad4f;fill-opacity:1;stroke:none;stroke-opacity:1" />
  <path d="M 712.9,446.5 C 710.7,462.8 705.8,478.9 697.3,493.0 689.6,485.7 681.4,479.0 673.1,472.4 676.4,466.4 682.7,447.0 684.7,440.5 z" style="fill:#76d3db;stroke:none;stroke-opacity:1" />
  <path d="M 322.2 453.5 C 323.7 452.5 325.2 451.5 326.8 450.5 C 329.5 456.5 333.2 462.2 337.7 467.0 C 333.7 470.0 330.3 473.6 326.7 477.0 C 324.5 469.3 323.1 461.5 322.2 453.5 Z" fill="#76d3db" style="stroke:none;stroke-opacity:1" />
  <path d="M 326.7 477.0 C 330.3 473.6 333.7 470.0 337.7 467.0 C 340.6 470.1 343.7 473.0 347.2 475.2 C 343.5 479.5 339.4 483.4 335.5 487.6 C 334.5 488.8 332.9 489.9 333.1 491.7 C 329.3 487.7 328.2 482.2 326.7 477.0 Z" fill="#d7f7eb" style="stroke:none;stroke-opacity:1" />
  <path d="M 673.1 472.4 C 681.4 479.0 689.6 485.7 697.3 493.0 C 694.4 498.2 690.8 503.0 686.6 507.3 C 680.2 498.9 672.8 491.2 665.9 483.2 C 668.6 479.8 671.0 476.2 673.1 472.4 Z" fill="#d7f7eb" style="stroke:none;stroke-opacity:1" />
  <path d="M 514.8 540.4 C 524.4 533.5 536.1 529.5 547.9 529.8 C 558.8 530.4 569.5 534.2 578.2 540.7 C 572.4 540.5 566.8 539.4 561.0 539.3 C 545.6 537.8 530.1 538.9 514.8 540.4 Z" fill="#b5ad4f" style="stroke:none;stroke-opacity:1" />
  <path d="M 503.7 572.0 C 503.4 565.9 506.7 560.5 509.3 555.1 C 510.7 563.7 514.1 573.5 523.1 576.6 C 519.6 578.2 515.6 578.4 511.9 578.3 C 508.2 578.3 504.2 576.0 503.7 572.0 Z" fill="#b5ad4f" style="stroke:none;stroke-opacity:1" />
  <path d="M 580.5 555.5 C 583.2 559.8 585.8 564.7 585.5 570.0 C 585.5 572.9 583.2 575.4 580.5 576.2 C 576.1 577.6 571.1 577.7 566.8 576.1 C 570.9 575.1 574.9 572.8 577.2 569.2 C 579.9 565.2 580.4 560.2 580.5 555.5 Z" fill="#b5ad4f" style="stroke:none;stroke-opacity:1" />
  <path d="M 502.3 627.4 C 512.7 616.0 527.8 609.9 542.9 608.4 C 556.2 607.3 570.1 610.1 581.1 617.9 C 595.7 628.1 604.4 644.8 608.5 661.8 C 609.0 664.5 610.1 667.2 609.5 669.9 C 578.2 654.1 541.0 652.9 507.8 662.9 C 500.2 664.8 493.0 668.2 485.7 671.0 C 486.6 655.3 491.3 639.1 502.3 627.4 Z" fill="#b5ad4f" style="stroke:none;stroke-opacity:1" />
  <path d="M 508.8,636.2 C 517.0,624.9 531.1,618.6 544.9,618.7 553.2,618.8 561.8,619.7 569.3,623.5 574.9,626.1 579.8,630.0 583.8,634.6 L 590.8,645.5 C 592.7,647.8 593.3,650.9 594.5,653.6 570.4,648.3 545.4,646.3 521.0,650.1 513.6,651.3 506.2,652.9 499.2,655.5 499.7,652.7 500.6,649.9 502.1,647.4 z" style="fill:#ffffff;stroke:none;stroke-opacity:1" />
  <path d="M 565.8 633.2 C 571.8 632.7 577.9 633.3 583.8 634.6 C 586.7 637.8 589.5 641.4 590.8 645.5 C 583.0 640.4 574.6 636.2 565.8 633.2 Z" fill="#a2b2bb" style="stroke:none;stroke-opacity:1" />
  <path d="M 508.8 636.2 C 515.2 635.0 521.6 634.2 528.1 634.4 C 519.0 637.8 510.0 641.9 502.1 647.4 C 503.3 643.2 506.2 639.9 508.4 636.2 L 508.8 636.2 Z" fill="#a2b2bb" style="stroke:none;stroke-opacity:1" />
  <path style="fill:#f3f6d7;fill-opacity:1;stroke:none;stroke-opacity:1" d="M 767.3,102.3 C 767.0,102.3 766.8,102.3 766.5,102.4 765.5,102.4 764.5,102.6 763.6,102.8 757.5,104.4 753.5,109.7 750.5,114.9 742.0,130.8 737.1,148.3 733.1,165.8 727.8,189.1 724.7,212.9 722.7,236.8 721.2,252.9 720.6,269.2 720.0,285.4 717.7,342.6 724.4,395.0 779.3,422.1 781.9,420.7 784.5,419.2 786.6,417.0 792.4,410.8 798.0,404.3 802.8,397.2 L 807.6,390.3 C 826.2,361.6 836.9,328.1 839.2,294.0 841.3,265.2 837.4,236.2 829.9,208.4 821.7,178.6 809.3,150.2 794.3,123.2 790.3,116.5 784.9,110.5 778.4,106.2 775.1,104.0 771.2,102.3 767.3,102.3 z" />
  <path d="M 665.6 334.9 C 678.5 329.3 693.2 327.3 707.0 330.5 C 722.0 334.0 735.0 343.5 744.6 355.3 C 754.9 367.6 762.1 382.1 768.0 397.0 C 769.0 398.9 770.1 402.8 773.0 401.2 C 773.2 403.5 773.6 405.7 774.1 407.9 C 778.9 430.7 778.6 454.6 773.4 477.3 C 769.3 495.7 761.8 513.4 750.7 528.6 C 741.6 541.3 729.7 552.1 715.6 558.7 C 702.4 565.1 687.2 567.2 672.8 564.2 C 658.1 561.4 644.9 553.0 634.3 542.6 C 625.6 532.9 617.5 522.2 613.2 509.7 C 613.3 509.2 613.4 508.3 613.5 507.8 L 613.6 507.6 C 623.3 518.1 637.4 525.3 651.9 524.5 C 665.3 523.9 677.4 516.6 686.6 507.3 C 690.8 503.0 694.4 498.2 697.3 493.0 C 705.8 478.9 710.7 462.8 712.9 446.5 C 715.2 423.7 713.4 400.0 704.7 378.6 C 703.4 375.4 702.0 372.2 700.4 369.2 C 698.2 365.2 696.1 361.3 693.4 357.7 C 692.0 355.9 690.7 354.1 689.3 352.4 C 682.8 344.9 674.8 338.6 665.6 334.9 Z" fill="#fffbfb" style="stroke:none" />
  <path d="M 790.1 159.6 C 804.0 186.1 812.2 215.9 812.2 245.9 C 811.9 270.1 806.1 294.3 794.4 315.6 C 790.9 321.8 787.4 328.1 782.4 333.3 C 799.8 297.3 804.3 256.4 800.7 217.0 C 799.2 197.5 795.2 178.4 790.1 159.6 Z" fill="#b5ad4f" style="stroke:none;stroke-opacity:1" />
  <path d="M 749.8,318.7 C 755.0,313.8 760.6,308.9 767.4,306.5 768.4,309.3 766.6,311.9 765.3,314.3 762.7,318.6 760.1,323.0 756.4,326.4 751.7,331.0 747.3,336.0 743.1,341.0 747.1,345.4 750.8,350.0 754.3,354.7 769.2,351.4 783.9,347.3 798.9,344.8 804.1,344.1 809.5,342.8 814.8,343.8 813.0,346.6 809.9,347.8 807.1,349.2 802.8,351.2 798.5,353.3 793.9,354.6 782.7,357.9 771.4,360.9 759.8,362.8 763.8,370.6 768.0,378.3 771.2,386.5 783.5,387.8 795.9,387.9 808.0,390.3 810.4,390.7 812.8,391.3 815.1,392.0 815.7,392.1 817.0,392.5 817.6,392.7 817.9,394.7 815.6,394.6 814.4,395.3 812.0,395.6 809.6,396.0 807.2,396.4 796.1,397.4 784.9,396.2 773.8,396.3 773.5,398.0 773.3,399.6 773.0,401.2 770.1,402.8 769.0,398.9 768.0,397 762.1,382.1 754.9,367.6 744.6,355.3 735.0,343.5 722.0,334.0 707.0,330.5 693.2,327.3 678.5,329.3 665.6,334.9 659.1,338.2 653.1,342.4 647.5,346.9 659.5,351.8 668.4,361.9 674.1,373.3 675.3,375.6 676.3,378 677.3,380.4 679.4,385.5 680.8,390.9 682.2,396.3 686.3,425.0 684.3,452.1 673.1,472.4 671.0,476.2 668.6,479.8 665.9,483.2 660.0,490.1 652.2,496.1 643.0,497.7 635.4,499.3 627.4,497.3 620.9,493.3 615.6,489.7 610.6,485.5 607.1,480.1 608.0,488.0 609.4,495.9 611.3,503.7 611.3,504.2 611.4,505.1 611.5,505.6 L 610.2,503.8 C 604.1,487.5 600.7,470.3 598.6,453.0 598.2,444.7 597.1,436.3 598.2,428 599.3,395.9 613.7,364.2 638.2,343.2 651.7,331.4 668.5,323.0 686.3,320.4 702.1,317.9 718.7,322.1 731.6,331.5 732.4,331.9 733.3,333.1 734.3,332.6 739.6,328.1 744.6,323.2 749.8,318.7 z" style="fill:#000000;stroke:none" />
  <path d="M 640.0 394.0 C 643.7 389.2 650.3 388.0 656.0 388.8 C 666.1 390.5 675.3 395.6 683.2 401.9 C 684.2 402.7 685.1 403.6 686.1 404.4 C 690.8 408.5 694.8 413.3 698.4 418.4 C 703.3 425.9 707.6 434.8 706.4 444.1 C 705.7 447.8 703.7 451.4 700.3 453.2 C 694.3 456.7 687.0 455.5 680.8 453.6 C 673.3 450.9 666.4 446.8 660.2 441.7 C 651.0 434.0 643.1 424.3 639.0 412.9 C 637.0 406.8 636.1 399.5 640.0 394.0 Z" fill="#ffffff" style="stroke:none;stroke-opacity:1" />
  <path d="M 636.5 440.7 C 640.2 439.5 644.2 440.4 647.5 442.2 C 652.6 445.0 657.2 449.3 659.1 454.9 C 659.9 457.4 659.8 460.7 657.5 462.3 C 653.1 464.9 647.7 462.6 643.7 460.2 C 639.4 457.2 635.3 453.2 633.8 448.0 C 633.0 445.3 633.8 442.0 636.5 440.7 Z" fill="#fffbfb" style="stroke:none;stroke-opacity:1" />
</svg>